<svg class="card" xmlns="http://www.w3.org/2000/svg" xmlns:xlink="http://www.w3.org/1999/xlink" width="110"
        height="150" viewBox="0 0 110 150" fill="none">
        <rect x="0" y="0" width="110" height="149.99999999999997" fill="#FFFFFF">
        </rect>
        <rect x="5" y="5" width="100" height="140" fill="#000000">
        </rect>
        <rect x="10" y="10" width="90" height="130" fill="#FF0000">
        </rect>
        <path class="paths" d="M97 45L97 13L65 13L97 45Z" fill="none">
        </path>
        <path class="paths" d="M65 137L97.0001 137L97.0001 105L65 137Z" fill="none">
        </path>
        <path class="paths" d="M13 105L13 137L45 137L13 105Z" fill="none">
        </path>
        <path class="paths" d="M44.9999 12.9999L12.9999 12.9999L12.9999 45L44.9999 12.9999Z" fill="none">
        </path>
        <circle class="cir01" cx="55.5" cy="75.5" r="50" fill="#000000">
        </circle>
        <circle class="cir02" cx="56" cy="76" r="36" fill="#FF0000">
        </circle>
        <circle class="cir03" cx="55.5" cy="75.5" r="26" fill="#000000">
        </circle>
        <circle class="cir04" cx="55.5" cy="75.5" r="16" fill="#FF0000">
        </circle>
	<rect x="10" y="10" width="6" height="130" fill="#FF0000">
	</rect>
        <rect x="94" y="10" width="6" height="130" fill="#FF0000">
	</rect>
    </svg>