<svg xmlns="http://www.w3.org/2000/svg" xmlns:xlink="http://www.w3.org/1999/xlink" width="110" height="150" viewBox="0 0 110 150" fill="none">
<rect x="0" y="0" width="109.99999999999974" height="150"   fill="#FFFFFF" >
</rect>
<rect x="5" y="5" width="100" height="139.99999380111694"   fill="#000000" >
</rect>
<rect x="10" y="10" width="90" height="129.9999876022339"   fill="#FF0000" >
</rect>
<ellipse cx="55.5" cy="75.49999904632568" rx="50" ry="49.999999046325684"   fill="#000000" >
</ellipse>
<ellipse cx="56" cy="75.99999809265137" rx="36" ry="35.99999809265137"   fill="#FF0000" >
</ellipse>
<circle cx="55.5" cy="75.5" r="26"   fill="#000000" >
</circle>
<ellipse cx="55.5" cy="75.50000190734863" rx="16" ry="16.000001907348633"   fill="#FF0000" >
</ellipse>
<rect x="10" y="10" width="6" height="129.9999876022339"   fill="#FF0000" >
</rect>
<rect x="94" y="10" width="6" height="129.9999876022339"   fill="#FF0000" >
</rect>
<rect x="88.42431640625" y="36.3453369140625" width="20" height="20" transform="rotate(112.9999971477205 88.42431640625 36.3453369140625)" stroke="rgba(255, 255, 255, 1)" stroke-width="1"      fill="#000000" >
</rect>
<rect x="85.59512329101562" y="37.059539794921875" width="16" height="16" transform="rotate(111.00000027522216 85.59512329101562 37.059539794921875)"   fill="#FF0000" >
</rect>
<g >
<path     fill="#FFFFFF"  d="M80.5479 44.6422C79.9082 44.9429 79.0134 45.3615 78.5069 45.5364L78.9327 46.868C79.4339 46.6668 80.3002 46.2157 80.8965 45.8909L80.5479 44.6422ZM78.845 37.5518C78.9909 37.7027 78.9416 38.2113 78.7738 38.8372L78.367 40.3556C76.3318 39.0028 74.9254 37.2967 74.3802 34.9268C74.0236 35.1915 73.3336 35.5408 72.9826 35.6455C73.3803 37.2678 74.1061 38.5928 75.1204 39.7218C74.433 39.9227 73.788 40.1971 73.2001 40.5365C72.9261 39.5189 72.8285 38.3995 72.8918 37.2362C72.5074 37.419 71.8787 37.586 71.4643 37.6489C71.4535 38.9877 71.5949 40.2679 71.9653 41.4356C71.0522 42.2469 70.2602 43.3018 69.5915 44.6383C69.9243 44.9263 70.4014 45.4641 70.622 45.8462C71.1692 44.6387 71.8205 43.6454 72.5527 42.8601C73.1789 44.0466 74.1014 45.1013 75.426 45.9532L76.139 45.1007L76.1493 44.8301L77.0624 41.4223C77.3443 41.6221 77.6294 41.8103 77.926 42.0016L76.5811 47.0205L77.911 47.3893L79.1689 42.6949C79.844 43.0497 80.5749 43.3822 81.3467 43.7008L82.021 42.2044C81.1564 41.8609 80.3476 41.4951 79.5975 41.0953L80.0261 39.4957C80.5365 39.9555 81.1744 40.4494 81.7939 40.8266L82.417 39.4283C81.5634 38.9511 80.7658 38.2652 80.5712 38.064C80.3481 37.8303 80.2293 37.6246 80.2179 37.4352C79.8445 37.4842 79.1596 37.5367 78.845 37.5518ZM73.687 41.872C74.3323 41.4113 75.0307 41.0767 75.7707 40.865L75.0066 43.7164C74.4538 43.1832 74.0132 42.5558 73.687 41.872Z">
</path>
</g>
<rect x="78.939208984375" y="55.048004150390625" width="16" height="16" transform="rotate(126.99999762979643 78.939208984375 55.048004150390625)" stroke="rgba(255, 255, 255, 1)" stroke-width="1"      fill="#000000" >
</rect>
<g >
<path     fill="#FFFFFF"  d="M76.0752 56.4159C75.1584 56.4162 73.9513 56.3631 73.2628 56.2199L73.1228 57.662C73.8161 57.7788 75.0161 57.7815 75.9186 57.7404L76.0752 56.4159ZM73.8115 59.8188C73.2788 59.748 72.5879 59.648 72.0841 59.5389L72.9724 58.3601L71.9278 57.5729L70.4112 59.5855L69.3666 58.7983L71.1359 56.4503L70.0913 55.6631L68.4303 57.8674C67.9064 57.127 67.6209 56.0103 68.1771 54.1756C67.764 54.285 67.0871 54.3459 66.7151 54.321C66.3466 55.9666 66.5022 57.1958 66.9345 58.1376C65.7316 58.358 64.4519 58.5807 63.6621 58.6317L63.8605 60.0434C64.7032 59.9421 66.0743 59.638 67.2965 59.372L65.5199 61.7296L66.5645 62.5167L68.4711 59.9867L69.5157 60.7738L67.8547 62.9781L68.8993 63.7652L69.6865 62.7206C69.8844 63.2755 70.1278 63.9096 70.3809 64.491L71.5997 63.5914C71.2386 63.0338 70.8276 62.2432 70.5531 61.5706L71.6364 60.133L71.4692 60.8335C71.9633 60.9354 72.8319 61.019 73.4726 61.066L73.8115 59.8188ZM72.0433 56.3828L73.6826 54.2073L72.6188 53.4057L71.81 54.479L69.2128 52.5219C69.3725 51.9511 69.3624 51.147 69.1963 50.2707L67.442 50.2259C67.7643 50.9946 68.115 51.905 67.9056 52.1829C67.7395 52.4034 67.1705 52.5005 66.5819 52.7631C65.6545 53.1762 64.9112 53.9234 63.9579 55.1884C63.1852 56.2138 62.0174 57.9032 61.5453 58.6293C61.8663 58.9013 62.3088 59.5503 62.5359 59.9468C63.1409 58.825 64.2655 57.1331 65.0527 56.0885C65.8904 54.9768 66.634 54.1097 67.5157 53.7373C67.7655 53.625 67.9937 53.5415 68.1906 53.4796L72.0433 56.3828Z">
</path>
</g>
<rect x="69.83090209960938" y="66.83155822753906" width="16" height="16" transform="rotate(116.00002219801627 69.83090209960938 66.83155822753906)" stroke="rgba(255, 255, 255, 1)" stroke-width="1"      fill="#000000" >
</rect>
<g >
<path     fill="#FFFFFF"  d="M65.5816 73.8467C65.0531 73.5889 64.5033 73.3475 63.9643 73.1113L66.1211 68.6892L62.9501 67.1426C61.548 66.4588 59.6813 65.4682 58.7921 64.0065C58.4991 64.2241 57.7404 64.575 57.3711 64.6753C58.2611 66.2175 60.2646 67.475 61.8343 68.2807L61.1452 69.6936C59.7967 69.0092 59.2893 68.7083 59.1961 68.516C59.1359 68.3932 59.1561 68.2695 59.2245 68.1293C59.314 67.946 59.4983 67.5953 59.7201 67.2228C59.3071 67.2483 58.7318 67.1413 58.3438 66.9788C58.0857 67.4804 57.8703 67.9495 57.7714 68.2617C57.6728 68.6008 57.6594 68.8746 57.8238 69.2219C58.0264 69.6277 58.9708 70.1551 61.2255 71.3082C61.3765 71.3819 61.7001 71.5397 61.7001 71.5397L63.0099 68.8541L64.1856 69.4275L62.6548 72.5661C60.9578 71.9119 59.3213 71.4075 57.9076 71.1853C57.5009 70.2125 57.2706 69.179 57.2279 68.1168C56.8431 68.2762 56.0724 68.4878 55.7025 68.5344C55.7862 69.403 55.977 70.2437 56.2803 71.0725C55.1645 71.1157 54.3253 71.4675 53.9571 72.2225C53.4679 73.2255 53.732 73.8884 55.649 75.0771C55.9467 74.795 56.4749 74.4786 56.9082 74.3294C55.5755 73.6126 55.0993 73.2202 55.2203 72.9721C55.3939 72.6162 56.0153 72.492 56.9391 72.5688C57.6229 73.8769 58.5689 75.1127 59.7608 76.2548L60.7101 75.1023C59.9628 74.4173 59.3222 73.6777 58.81 72.8938C59.7783 73.1257 60.8658 73.4692 62.0025 73.9035L60.3665 77.2578L61.6391 77.8785L62.1862 76.7568L62.4785 77.5536C63.0399 77.3334 63.9092 76.7828 64.5114 76.3421L64.1188 75.176C63.6443 75.492 63.0093 75.8632 62.5071 76.0989L63.312 74.4487C63.851 74.6849 64.3847 74.9319 64.9188 75.2057L65.5816 73.8467Z">
</path>
</g>
<rect x="63.496490478515625" y="80.77084350585938" width="18" height="18" transform="rotate(108.00001700486234 63.496490478515625 80.77084350585938)" stroke="rgba(255, 255, 255, 1)" stroke-width="1"      fill="#000000" >
</rect>
<g >
<path     fill="#E30000"  d="M52.9169 79.8191L51.1271 79.6644C51.0507 81.2588 50.956 83.3625 50.9132 85.3065L52.4959 85.5999L52.6047 83.5891L57.398 85.1465L56.8399 86.8642L58.3578 87.3573L59.9931 82.3243L58.4752 81.8312L57.9128 83.5621L52.72 81.8748C52.7806 81.0996 52.8461 80.3996 52.9169 79.8191ZM58.9122 89.8192L56.2935 88.9536L56.8992 87.0895L55.368 86.592L54.7839 88.3895C51.7644 87.217 49.655 85.7809 49.034 82.7086C48.6156 82.9995 47.8653 83.3152 47.379 83.4074C48.1715 86.9034 50.7523 88.6105 54.2604 90.0006L53.6807 91.7848C49.5388 90.3065 47.9087 89.6149 47.6397 89.1742C47.5009 88.9672 47.5086 88.8077 47.5864 88.5681C47.6859 88.2618 47.8979 87.6094 48.1762 86.9343C47.6502 87.0579 46.9063 87.037 46.4449 86.9165C46.1804 87.6402 45.9424 88.3725 45.8619 88.8468C45.7774 89.3787 45.8157 89.7592 46.2002 90.2521C46.6659 90.9481 48.5932 91.7215 53.9605 93.6421C54.1692 93.7246 54.6884 93.8934 54.6884 93.8934L55.77 90.5647L58.3844 91.4436L58.9122 89.8192Z">
</path>
</g>
<rect x="54.62310791015625" y="96.78036499023438" width="5" height="12" transform="rotate(107.0000063585111 54.62310791015625 96.78036499023438)" stroke="rgba(255, 255, 255, 1)" stroke-width="1"      fill="#000000" >
</rect>
<g >
<path     fill="#FFFFFF"  d="M46.5031 97.8993L47.0025 96.2659L53.3326 97.923L52.6777 100.065L46.5031 97.8993ZM46.1606 95.7157L45.4893 97.9114L43.2936 97.2401L43.9649 95.0444L46.1606 95.7157Z">
</path>
</g>
<rect x="53.14947509765625" y="101.50508117675781" width="15" height="16" transform="rotate(106.00001984484224 53.14947509765625 101.50508117675781)" stroke="rgba(255, 255, 255, 1)" stroke-width="1"      fill="#000000" >
</rect>
<g >
<path     fill="#FFFFFF"  d="M43.4512 104.169L43.8063 102.498L50.2568 103.597L49.7911 105.788L43.4512 104.169ZM42.9197 102.023L42.4423 104.269L40.1965 103.792L40.6738 101.546L42.9197 102.023Z">
</path>
</g>
<rect  x="47.0743408203125" y="115.9951171875" width="14" height="15" transform="rotate(124.00000756099618 47.0743408203125 115.9951171875)"    fill="#000000" >
</rect>
<path fill-rule="evenodd"  fill="rgba(255, 255, 255, 1)"  d="M26.945 119.908L39.3806 128.296L47.4889 116.275L46.6598 115.716L39.1107 126.908L27.5042 119.079L35.0533 107.887L34.2242 107.328L26.1159 119.349L26.945 119.908Z">
</path>
<g >
<path     fill="#D90000"  d="M37.1561 115.248L38.1601 113.866L43.6058 117.494L42.2891 119.306L37.1561 115.248ZM37.5431 113.072L36.1936 114.93L34.3361 113.58L35.6856 111.723L37.5431 113.072Z">
</path>
</g>
</svg>
