<svg xmlns="http://www.w3.org/2000/svg" xmlns:xlink="http://www.w3.org/1999/xlink" width="394.44110107421875" height="483.66870880126953" viewBox="0 0 394.44110107421875 483.66870880126953" fill="none">
<path d="M312.542 436.997C311.535 437.174 310.464 437.264 309.48 437.289L87.7735 438.663C77.6537 438.715 69.3422 430.528 69.2925 420.439L66.7233 64.8417C66.6682 55.8424 73.0263 48.1874 81.8436 46.6327C82.8499 46.4552 83.9211 46.3654 84.9528 46.3319L306.603 44.9183C311.539 44.8895 316.165 46.7467 319.647 50.2412C323.121 53.6877 325.069 58.2941 325.093 63.1904L327.654 418.74C327.765 427.778 321.407 435.434 312.542 436.997Z"   fill="#1E7CB9" >
</path>
<path d="M82.6728 51.337C83.4391 51.2019 84.1663 51.1232 84.9589 51.1319L306.609 49.7183C314.16 49.6738 320.267 55.7249 320.308 63.2416L322.878 418.839C322.927 425.562 318.093 431.216 311.672 432.348C310.905 432.483 310.178 432.562 309.386 432.553L87.6794 433.927C80.1755 433.963 74.0208 427.921 73.9801 420.404L71.4108 64.8067C71.4576 58.0665 76.299 52.4609 82.6728 51.337ZM81.0222 41.9757L81.0222 41.9757C69.9048 43.936 61.9172 53.5613 61.9788 64.8363L64.548 420.433C64.6235 433.191 75.0834 443.474 87.8192 443.406L309.526 442.032C310.805 442.005 312.125 441.92 313.418 441.692C324.535 439.732 332.57 430.098 332.453 418.784L329.883 63.1867C329.841 57.0563 327.432 51.2441 323.014 46.9246C318.636 42.5487 312.789 40.2137 306.621 40.2617L84.9709 41.6754C83.6263 41.6155 82.3155 41.7476 81.0222 41.9757Z"   fill="#22286E" >
</path>
<path d="M321.15 169.171L320.356 63.2333C320.316 55.7164 314.161 49.6737 306.657 49.7099L85.0068 51.1235C77.5028 51.1597 71.4658 57.2731 71.5065 64.7899L72.9219 264.766C191.414 246.595 273.107 202.986 321.15 169.171Z"   fill="#73C0D7" >
</path>
<path d="M226.45 146.864C215.296 149.177 205.555 154.458 196.214 160.61C186.852 154.588 177.002 149.445 165.836 147.206C137.837 141.699 107.468 163.933 101.039 190.806C92.6141 226.249 122.508 254.835 148.53 276.036C166.48 290.691 179.638 302.825 197.16 317.852C197.216 317.891 197.225 317.939 197.281 317.979C197.321 317.923 197.369 317.914 197.408 317.858C214.733 302.626 227.735 290.334 245.472 275.476C271.176 253.965 300.714 225.046 291.811 189.69C285.064 162.912 254.379 141.048 226.45 146.864Z"   fill="#FFFFFF" >
</path>
<path d="M197.536 324.468L193.874 321.352C187.824 316.182 182.151 311.193 176.656 306.37C166.603 297.549 157.074 289.182 145.534 279.782C116.335 255.973 87.6896 226.622 96.4529 189.734C103.718 159.199 137.214 136.76 166.751 142.59C178.374 144.897 188.393 150.159 196.168 155.025C203.897 150.098 213.869 144.726 225.446 142.289C255.035 136.082 288.731 158.206 296.369 188.638C305.622 225.419 277.347 255.055 248.452 279.207C237.04 288.743 227.618 297.236 217.632 306.174C212.167 311.048 206.584 316.091 200.467 321.476L197.536 324.468ZM149.504 151.819C129.617 155.325 110.48 171.767 105.682 191.918C98.1416 223.69 124.593 250.409 151.543 272.387C163.203 281.913 172.789 290.321 182.947 299.172C187.562 303.21 192.242 307.334 197.252 311.648C202.21 307.26 206.81 303.082 211.378 299.01C221.404 290.016 230.865 281.467 242.452 271.8C269.062 249.536 295.225 222.5 287.27 190.837C280.929 165.522 251.776 146.457 227.511 151.478C216.118 153.834 206.278 159.677 198.933 164.536L196.365 166.227L193.797 164.551C186.391 159.818 176.43 154.05 165.064 151.797C159.911 150.875 154.679 150.906 149.504 151.819Z"   fill="#22286E" >
</path>
<path d="M200.2 302.862C199.098 303.057 197.976 302.858 196.986 302.29C196.713 302.141 196.479 301.934 196.197 301.737C191.195 297.471 186.693 293.512 182.255 289.642C174.541 282.884 167.287 276.491 158.457 269.286C135.491 250.566 112.939 227.466 119.928 198.168C124.294 179.776 141.422 163.985 160.638 160.597C165.813 159.684 170.957 159.718 175.871 160.683C184.776 162.429 192.495 166.414 198.539 170.15C204.543 166.368 212.224 162.292 221.086 160.432C221.469 160.364 221.901 160.288 222.332 160.212C245.334 156.156 271.626 173.845 277.532 197.256C284.855 226.457 262.632 249.779 239.895 268.787C231.023 276.192 223.686 282.782 215.969 289.736C211.75 293.549 207.348 297.444 202.604 301.646C202.604 301.646 202.556 301.655 202.565 301.703C201.883 302.318 201.062 302.71 200.2 302.862Z"   fill="#D9353E" >
</path>
<path d="M161.41 165.262C165.867 164.476 170.411 164.467 174.907 165.308C183.604 166.992 191.235 171.042 198.537 175.744C205.803 170.997 213.38 166.889 222.05 165.064C222.434 164.996 222.769 164.937 223.152 164.869C244.573 161.092 267.744 177.895 272.943 198.412C279.817 225.91 256.858 248.421 236.884 265.16C223.059 276.705 212.983 286.253 199.513 298.132C199.465 298.141 199.474 298.189 199.426 298.197C199.37 298.158 199.37 298.158 199.313 298.118C185.687 286.413 175.476 276.977 161.509 265.58C141.309 249.095 118.012 226.819 124.57 199.28C128.457 182.655 144.207 168.295 161.41 165.262ZM159.759 155.901L161.41 165.262L159.759 155.901C138.771 159.602 120.081 176.905 115.284 197.056C107.752 228.876 131.325 253.281 155.444 272.936C164.218 280.101 171.463 286.446 179.177 293.204C183.502 296.996 188.004 300.954 192.893 305.141C193.482 305.68 194.102 306.115 194.81 306.486C196.781 307.574 198.96 307.882 201.02 307.519C202.697 307.223 204.298 306.495 205.623 305.321C205.671 305.313 205.663 305.265 205.71 305.256C210.502 301.046 214.896 297.103 219.115 293.29C226.832 286.336 234.129 279.802 242.954 272.405C266.81 252.458 290.084 227.812 282.112 196.053C275.523 169.891 247.226 150.922 221.493 155.46C221.014 155.544 220.583 155.62 220.104 155.705C211.712 157.432 204.434 160.992 198.484 164.516C192.491 161.069 185.161 157.609 176.76 155.923C171.246 154.915 165.558 154.878 159.759 155.901Z"   fill="#22286E" >
</path>
<path d="M296.842 421.946C296.603 421.988 296.315 422.039 296.067 422.033L287.723 422.069C285.651 422.088 283.782 420.734 283.187 418.76L274.291 390.728C273.837 389.273 274.102 387.692 274.978 386.498C275.689 385.482 276.81 384.839 278.008 384.628C278.248 384.585 278.536 384.535 278.784 384.54L285.6 384.526C287.672 384.508 289.541 385.861 290.144 387.883L291.309 391.687L292.197 391.679L293.217 387.935C293.688 386.12 295.187 384.816 296.96 384.503C297.2 384.461 297.487 384.41 297.735 384.416L304.351 384.388C305.831 384.375 307.286 385.059 308.194 386.285C309.102 387.51 309.372 389.047 308.938 390.509L300.563 418.666C300.019 420.346 298.567 421.642 296.842 421.946Z"   fill="#FFFFFF" >
</path>
<path d="M278.774 389.244L285.582 389.183L287.788 396.367L295.836 396.334L297.774 389.112L304.39 389.084L296.014 417.241L287.67 417.277L278.774 389.244ZM292.072 412.54C292.472 410.886 292.884 408.734 293.34 407.12L294.954 401.142L288.739 401.199L290.532 407.169C291.02 408.816 291.536 410.902 291.977 412.557L292.072 412.54ZM277.124 379.883C274.728 380.306 272.541 381.632 271.12 383.664C269.328 386.109 268.846 389.263 269.746 392.123L278.642 420.156C279.888 424.143 283.57 426.811 287.762 426.764L296.106 426.729C296.65 426.732 297.186 426.687 297.713 426.594C301.211 425.977 304.122 423.434 305.137 419.939L313.512 391.782C314.389 388.905 313.838 385.784 312.031 383.38C310.224 380.977 307.402 379.544 304.394 379.579L297.778 379.607C297.234 379.604 296.698 379.649 296.171 379.742C294.494 380.038 292.949 380.805 291.656 381.875C289.978 380.488 287.81 379.682 285.538 379.686L278.731 379.748C278.139 379.754 277.603 379.799 277.124 379.883Z"   fill="#22286E" >
</path>
<path d="M300.061 374.057C298.576 374.319 297.039 374.293 295.604 374.001C294.226 373.75 293.005 373.272 291.928 372.769C290.837 373.307 289.634 373.767 288.292 374.004C288.244 374.012 288.052 374.046 288.005 374.055C281.44 375.212 274.49 370.547 272.874 363.902C270.724 355.074 278.32 348.834 281.55 346.136C283.281 344.742 284.684 343.455 286.136 342.16C286.993 341.415 287.849 340.67 288.785 339.812C288.912 339.69 288.999 339.625 289.135 339.552C289.698 339.106 290.392 338.835 291.063 338.717C292.261 338.506 293.543 338.775 294.615 339.526C294.727 339.605 294.897 339.724 295.018 339.851C296.002 340.668 296.881 341.453 297.713 342.247C299.173 343.524 300.578 344.761 302.263 346.196C305.506 348.892 313.135 355.169 310.98 363.964C309.788 368.976 305.284 373.136 300.061 374.057Z"   fill="#D9353E" >
</path>
<path d="M291.94 343.413L291.94 343.413C294.618 345.713 296.581 347.595 299.298 349.838C303.226 353.056 307.756 357.454 306.432 362.836C305.663 366.04 302.594 368.809 299.24 369.401C298.377 369.553 297.441 369.569 296.567 369.377C294.876 369.031 293.404 368.251 291.955 367.319C290.54 368.261 289.044 369.02 287.375 369.364C287.327 369.373 287.279 369.381 287.183 369.398C282.966 370.141 278.478 366.824 277.471 362.794C276.179 357.429 280.649 353.077 284.57 349.811C287.284 347.551 289.282 345.714 291.94 343.413C291.892 343.422 291.94 343.413 291.94 343.413ZM290.289 334.052C288.612 334.348 286.972 335.132 285.647 336.306C284.703 337.116 283.854 337.909 282.997 338.654C281.546 339.95 280.134 341.189 278.539 342.509C274.959 345.467 265.388 353.392 268.285 365.058C270.516 374.069 279.921 380.331 288.834 378.759L289.265 378.683C290.215 378.466 291.109 378.21 291.994 377.905C292.837 378.202 293.727 378.49 294.697 378.666C296.749 379.096 298.821 379.077 300.882 378.714C307.926 377.472 313.952 371.855 315.614 365.028C318.445 353.342 308.896 345.423 305.307 342.442C303.694 341.143 302.338 339.897 300.934 338.659C300.055 337.874 299.175 337.089 298.183 336.224C297.715 335.812 297.207 335.456 296.708 335.148C294.681 334.02 292.398 333.68 290.289 334.052Z"   fill="#22286E" >
</path>
<path d="M88.1175 85.5712C88.0767 78.0544 94.1138 71.941 101.618 71.9048L320.404 70.5014L320.357 63.2331C320.317 55.7162 314.162 49.6735 306.658 49.7097L85.008 51.1233C77.5041 51.1594 71.467 57.2729 71.5078 64.7896L74.0291 420.395C74.0699 427.912 80.2246 433.955 87.7285 433.919L90.6404 433.9L88.1175 85.5712Z"   fill="#FFFFFF" >
</path>
<path d="M115.877 101.219C115.685 101.253 115.446 101.295 115.245 101.281L108.424 101.543C106.312 101.618 104.452 100.313 103.761 98.3559L102.452 94.5772L101.516 94.5937L100.601 98.3686C100.139 100.232 98.6562 101.632 96.8353 101.953C96.6437 101.987 96.4041 102.029 96.2039 102.015L89.6302 102.283C88.1109 102.353 86.7041 101.66 85.7568 100.491C84.8094 99.3216 84.4821 97.7458 84.8681 96.2917L92.3616 67.8941C92.832 66.0787 94.3314 64.7748 96.1045 64.4622C96.2961 64.4284 96.5357 64.3862 96.7359 64.4004L105.077 64.0681C107.14 64.0013 109.041 65.2502 109.74 67.2554L119.529 95.0311C120.031 96.477 119.814 98.0497 118.994 99.2833C118.236 100.308 117.123 100.999 115.877 101.219Z"   fill="#FFFFFF" >
</path>
<path d="M96.9736 69.1105L105.315 68.7783L115.104 96.5539L108.282 96.8163L105.837 89.674L97.7833 89.9556L96.0537 97.24L89.4801 97.5081L96.9736 69.1105ZM104.711 84.972L102.734 79.0837C102.198 77.4457 101.586 75.3756 101.098 73.7292L101.003 73.7461C100.659 75.4401 100.296 77.5832 99.9436 79.2292L98.4816 85.229L104.711 84.972ZM95.3229 59.7492C91.7289 60.3829 88.7385 63.0386 87.7976 66.6695L80.3041 95.0671C79.5323 97.9752 80.1783 101.079 82.073 103.418C83.9677 105.757 86.8207 107.085 89.82 107.002L96.3936 106.733C96.8334 106.705 97.2731 106.677 97.7044 106.601C99.4774 106.289 101.109 105.456 102.434 104.282C104.151 105.613 106.31 106.371 108.622 106.31L115.444 106.047C115.883 106.019 116.323 105.991 116.754 105.915C119.246 105.476 121.512 104.037 122.964 101.9C124.652 99.4243 125.077 96.2309 124.081 93.3869L114.292 65.6113C112.91 61.697 109.141 59.0946 104.975 59.2848L96.6337 59.617C96.146 59.6535 95.7542 59.6731 95.3229 59.7492Z"   fill="#22286E" >
</path>
<path d="M105.173 145.033C104.262 145.193 103.357 145.105 102.45 144.721C102.024 144.548 101.629 144.271 101.226 143.947C100.242 143.13 99.3627 142.345 98.483 141.559C97.0226 140.282 95.6186 139.045 93.9411 137.658C90.6594 135.019 83.0304 128.741 85.1375 119.955C86.3685 114.887 90.8639 110.678 96.1351 109.749C97.6206 109.487 99.1006 109.474 100.488 109.774C101.866 110.025 103.087 110.503 104.164 111.006C105.254 110.467 106.458 110.008 107.791 109.723C107.839 109.715 108.079 109.672 108.127 109.664C114.644 108.515 121.585 113.132 123.241 119.72C125.43 128.492 117.851 134.828 114.621 137.526C112.938 138.911 111.582 140.19 110.083 141.494C109.274 142.23 108.417 142.976 107.481 143.834C106.904 144.48 106.035 144.881 105.173 145.033Z"   fill="#D9353E" >
</path>
<path d="M96.9568 114.406C97.8194 114.254 98.7073 114.245 99.5812 114.438C101.273 114.783 102.792 115.555 104.185 116.448C105.6 115.505 107.088 114.698 108.757 114.355C108.805 114.346 108.9 114.329 108.948 114.321C113.117 113.586 117.645 116.846 118.652 120.876C119.992 126.233 115.531 130.633 111.61 133.899C108.896 136.159 106.954 138.036 104.296 140.336L104.296 140.336L104.296 140.336C101.618 138.037 99.6638 136.203 96.9066 134.016C92.9793 130.798 88.4091 126.456 89.6852 121.083C90.4936 117.822 93.5545 115.006 96.9568 114.406ZM95.3061 105.044L95.3061 105.044C88.2619 106.286 82.1487 111.968 80.543 118.834C77.7684 130.56 87.3484 138.375 90.9853 141.347C92.5979 142.647 93.9456 143.844 95.406 145.121C96.2856 145.907 97.2132 146.684 98.2056 147.548C98.6736 147.961 99.229 148.308 99.7844 148.656C101.755 149.744 103.99 150.092 106.051 149.729C107.776 149.425 109.369 148.649 110.693 147.475C111.638 146.665 112.486 145.872 113.343 145.127C114.794 143.831 116.158 142.601 117.793 141.223C121.364 138.218 130.888 130.302 127.934 118.596C125.664 109.641 116.267 103.427 107.402 104.99C107.21 105.024 107.067 105.05 106.875 105.083C105.925 105.3 105.031 105.557 104.194 105.853C103.351 105.556 102.461 105.268 101.491 105.092C99.3991 104.719 97.3188 104.689 95.3061 105.044Z"   fill="#22286E" >
</path>
</svg>
