<?xml version="1.0" standalone="no"?><!DOCTYPE svg PUBLIC "-//W3C//DTD SVG 1.1//EN" "http://www.w3.org/Graphics/SVG/1.1/DTD/svg11.dtd"><svg height="1024" node-id="1" sillyvg="true" template-height="1024" template-width="1024" version="1.1" viewBox="0 0 1024 1024" width="1024" xmlns="http://www.w3.org/2000/svg" xmlns:xlink="http://www.w3.org/1999/xlink"><defs node-id="34"><clipPath id="SVGID_2_" node-id="12"><path d="M 504.90 796.38 C 706.31 796.38 808.39 746.46 808.39 746.46 L 512.33 318.85 L 511.93 318.85 L 215.86 746.46 C 215.86 746.46 317.94 796.38 519.35 796.38 L 504.90 796.38 Z" fill="#000000" fill-rule="nonzero" node-id="37" stroke="none" target-height="477.53" target-width="592.53" target-x="215.86" target-y="318.85"></path></clipPath><clipPath id="SVGID_4_" node-id="20"><path d="M 506.99 612.40 C 650.19 612.40 722.76 576.91 722.76 576.91 L 512.27 272.89 L 511.98 272.89 L 301.49 576.90 C 301.49 576.90 374.07 612.39 517.26 612.39 L 506.99 612.39 Z" fill="#000000" fill-rule="nonzero" node-id="41" stroke="none" target-height="339.51" target-width="421.27002" target-x="301.49" target-y="272.89"></path></clipPath><clipPath id="SVGID_6_" node-id="28"><path d="M 508.29 474.07 C 615.21 474.07 669.40 449.24 669.40 449.24 L 512.23 236.52 L 512.02 236.52 L 354.85 449.24 C 354.85 449.24 409.04 474.07 515.96 474.07 L 508.29 474.07 Z" fill="#000000" fill-rule="nonzero" node-id="45" stroke="none" target-height="237.55" target-width="314.55002" target-x="354.85" target-y="236.52"></path></clipPath></defs><path d="M 456.65 735.05 L 568.37 735.05 L 568.37 875.00 L 456.65 875.00 Z" fill="#8e331b" fill-rule="nonzero" node-id="51" stroke="none" target-height="139.95001" target-width="111.72" target-x="456.65" target-y="735.05"></path><g node-id="99"><g node-id="102"><path d="M 504.90 796.10 C 706.31 796.10 808.39 746.18 808.39 746.18 L 512.33 318.57 L 511.93 318.57 L 215.86 746.18 C 215.86 746.18 317.94 796.10 519.35 796.10 L 504.90 796.10 Z" fill="#438a89" fill-rule="nonzero" group-id="1,4" node-id="57" stroke="none" target-height="477.52997" target-width="592.53" target-x="215.86" target-y="318.57"></path></g><g clip-path="url(#SVGID_2_)" group-id="1,5" node-id="62"><path d="M 502.70 627.12 C 704.11 627.12 806.19 577.20 806.19 577.20 L 510.13 149.59 L 509.73 149.59 L 213.66 577.20 C 213.66 577.20 315.74 627.12 517.15 627.12 L 502.70 627.12 Z" fill="#3d7886" fill-rule="nonzero" group-id="1,5,8" node-id="64" stroke="none" target-height="477.53" target-width="592.53" target-x="213.66" target-y="149.59"></path></g></g><g node-id="100"><path d="M 506.99 612.20 C 650.19 612.20 722.76 576.71 722.76 576.71 L 512.27 272.69 L 511.98 272.69 L 301.49 576.70 C 301.49 576.70 374.07 612.19 517.26 612.19 L 506.99 612.19 Z" fill="#438a89" fill-rule="nonzero" group-id="2" node-id="71" stroke="none" target-height="339.51" target-width="421.27002" target-x="301.49" target-y="272.69"></path><g node-id="104"><g clip-path="url(#SVGID_4_)" group-id="2,6" node-id="75"><path d="M 505.22 492.10 C 648.42 492.10 720.99 456.61 720.99 456.61 L 510.50 152.59 L 510.21 152.59 L 299.72 456.60 C 299.72 456.60 372.30 492.09 515.49 492.09 L 505.22 492.09 Z" fill="#3d7886" fill-rule="nonzero" group-id="2,6,9" node-id="77" stroke="none" target-height="339.51" target-width="421.27" target-x="299.72" target-y="152.59"></path></g></g></g><g node-id="101"><path d="M 508.29 474.07 C 615.21 474.07 669.40 449.24 669.40 449.24 L 512.23 236.52 L 512.02 236.52 L 354.85 449.24 C 354.85 449.24 409.04 474.07 515.96 474.07 L 508.29 474.07 Z" fill="#438a89" fill-rule="nonzero" group-id="3" node-id="84" stroke="none" target-height="237.55" target-width="314.55002" target-x="354.85" target-y="236.52"></path><g node-id="105"><g clip-path="url(#SVGID_6_)" group-id="3,7" node-id="88"><path d="M 508.29 369.24 C 615.21 369.24 669.40 344.41 669.40 344.41 L 512.23 131.69 L 512.02 131.69 L 354.85 344.40 C 354.85 344.40 409.04 369.23 515.96 369.23 L 508.29 369.23 Z" fill="#3d7886" fill-rule="nonzero" group-id="3,7,10" node-id="90" stroke="none" target-height="237.54999" target-width="314.55002" target-x="354.85" target-y="131.69"></path></g></g></g><path d="M 507.93 355.77 C 575.47 355.77 609.70 340.51 609.70 340.51 L 510.42 209.84 L 510.28 209.84 L 411.00 340.52 C 411.00 340.52 445.23 355.78 512.77 355.78 L 507.93 355.78 Z" fill="#438a89" fill-rule="nonzero" node-id="95" stroke="none" target-height="145.94" target-width="198.70001" target-x="411" target-y="209.84"></path><path d="M 494.95 189.43 L 510.69 151.34 L 523.39 189.43 L 557.42 177.24 L 529.99 211.90 L 542.83 246.41 L 510.69 227.53 L 482.76 246.41 L 490.88 214.83 L 462.44 195.02 Z" fill="#fdc25b" fill-rule="nonzero" node-id="97" stroke="none" target-height="95.07001" target-width="94.97998" target-x="462.44" target-y="151.34"></path></svg>