<svg xmlns="http://www.w3.org/2000/svg" xmlns:xlink="http://www.w3.org/1999/xlink" width="466.69049072265625" height="466.69049072265625" viewBox="0 0 466.69049072265625 466.69049072265625" fill="none">
<circle cx="165" cy="398.3452453613281" transform="rotate(-45 0 233.34524536132812)" r="165"   fill="#DEB385" >
</circle>
<path     fill="#FFF28C"  d="M119.863 346.137L119.863 346.137L233 233L346.137 346.137L346.137 346.137C283.653 408.621 182.347 408.621 119.863 346.137Z">
</path>
<path     fill="#C7FAFF"  d="M119.863 119.863L119.863 119.863L233 233L119.863 346.137L119.863 346.137C57.379 283.653 57.379 182.347 119.863 119.863Z">
</path>
<path     fill="#FFABD9"  d="M346.137 119.863L346.137 119.863L233 233L119.863 119.863L119.863 119.863C182.347 57.379 283.653 57.379 346.137 119.863Z">
</path>
<path     fill="#C1F29D"  d="M346.137 346.137L346.137 346.137L233 233L346.137 119.863L346.137 119.863C408.621 182.347 408.621 283.653 346.137 346.137Z">
</path>
<g >
<path     fill="#FFFFFF"  d="M99.0722 240.776C99.7682 236.552 101.304 230.432 102.384 227.456L99.1202 225.896C98.0642 229.088 96.7442 235.352 96.2642 239.336L99.0722 240.776ZM79.2002 236.432C81.6722 237.776 84.4322 240.176 86.4962 243.608C87.0722 242.864 88.3922 241.784 89.2322 241.304C88.4402 240.128 87.5762 239.072 86.6882 238.112C87.3602 237.536 87.9602 236.912 88.5362 236.24C89.4962 238.592 90.1682 241.304 90.5762 244.136C91.3922 243.488 92.9042 242.744 93.8642 242.432C93.4562 240.248 92.9042 238.136 92.1842 236.168L94.8482 237.512C95.5202 234.584 96.7442 230.168 97.4882 228.056L94.3442 226.592C93.6722 228.8 92.6402 233.192 92.1122 235.976C91.7282 234.92 91.2962 233.912 90.7922 232.976C92.2322 230.384 93.1922 227.336 93.7442 223.832C92.7362 223.352 91.1762 222.368 90.3362 221.576C90.0482 224.528 89.4722 227.216 88.6322 229.544C87.0242 227.456 85.0082 225.776 82.5602 224.624L81.2402 227.024L81.3842 227.6L81.3842 233.576L79.9682 232.688L79.2002 236.432ZM84.3602 229.928C85.3442 230.792 86.2082 231.872 86.9762 233.12C86.2802 234.248 85.4882 235.256 84.6242 236.072L84.3602 235.832L84.3602 229.928Z">
</path>
</g>
<path    stroke="rgba(222, 179, 133, 1)" stroke-width="4"    d="M119.863 119.863L346.137 346.137">
</path>
<path    stroke="rgba(222, 179, 133, 1)" stroke-width="4"    d="M119.863 346.137L346.137 119.863">
</path>
<circle cx="181.22340393066406" cy="358.0000762939453" transform="rotate(-45 56.22340393066406 233.0000762939453)" r="125"   fill="#F7D3AD" >
</circle>
<g >
<path     fill="#FFFFFF"  d="M233.648 381.376C233.696 379.168 234.104 376.528 234.896 375.088L231.896 373.936C230.984 375.784 230.6 378.52 230.648 380.968L233.648 381.376ZM225.032 381.376C225.392 379.6 226.064 377.32 226.736 375.616L226.952 376.792C226.712 379.696 226.712 382.936 226.688 386.584L229.904 386.584C229.928 376.336 229.568 370.096 235.712 366.448C234.92 365.872 233.936 364.672 233.48 363.856C230.84 365.512 229.232 367.648 228.248 370.288C227.24 367.576 225.752 365.416 223.496 363.976C223.04 364.816 222.08 366.064 221.36 366.664C224.144 368.2 225.68 371.2 226.544 374.824L224.096 374.176C223.328 375.808 222.392 378.256 221.6 380.632L225.032 381.376ZM236.192 386.584C238.304 385.72 241.4 385 244.304 384.568C243.92 383.848 243.488 382.648 243.344 381.88C242.456 381.976 241.52 382.096 240.584 382.24L240.584 379.912L244.184 379.912L244.184 376.72L241.352 376.72C242.216 374.632 243.464 372.352 244.784 370.888C244.232 369.928 243.416 368.344 243.104 367.288C242.192 368.44 241.328 370.024 240.584 371.728L240.584 363.88L237.2 363.88L237.2 372.76C236.72 371.944 236.24 371.104 235.952 370.48L234.056 373.336C234.488 373.864 236.6 375.976 237.2 376.48L237.2 376.72L234.56 376.72L234.56 379.912L237.2 379.912L237.2 382.888C236.096 383.152 235.04 383.464 234.056 383.8L236.192 386.584Z">
</path>
</g>
<g >
<path     fill="#FFFFFF"  d="M377.968 227.984L377.968 237.968L377.32 237.968L377.32 227.984L377.968 227.984ZM375.448 227.984L375.448 237.968L374.776 237.968L374.776 227.984L375.448 227.984ZM380.488 227.984L380.488 237.968L379.84 237.968L379.84 227.984L380.488 227.984ZM382.36 224.624L372.904 224.624L372.904 228.176C371.8 226.76 370.864 224.648 370.192 221.744C369.688 222.392 368.512 223.328 367.744 223.736C368.176 225.08 368.632 226.28 369.16 227.36C368.56 227.96 368.032 228.584 367.552 229.256C367.024 226.904 366.736 224.24 366.616 221.504C365.896 222.008 364.696 222.536 363.88 222.776C364.168 226.4 364.696 229.856 365.68 232.832C364.648 235.568 364.096 238.832 363.88 242.672C364.792 243.104 366.208 243.92 366.952 244.592C367.024 241.784 367.24 239.24 367.648 237.008C368.536 238.424 369.664 239.624 371.032 240.536L372.376 238.352L372.232 237.752L372.232 231.776L372.904 232.4L372.904 241.496L382.36 241.496L382.36 234.392L383.032 234.656L383.032 243.392L385.816 243.392L385.816 222.632L383.032 222.632L383.032 230.864L382.36 230.768L382.36 224.624ZM368.728 233.024C369.064 232.16 369.472 231.392 369.928 230.744L369.928 235.208C369.472 234.56 369.088 233.84 368.728 233.024Z">
</path>
</g>
<g >
<path     fill="#FFFFFF"  d="M230.672 79.32L230.48 80.712L223.232 80.712L223.232 83.592L229.856 83.592L229.64 84.264L224.144 84.264L224.144 86.976L228.488 86.976L228.056 87.72L221.984 87.72L221.984 90.672L225.728 90.672C224.552 91.824 223.136 92.856 221.432 93.744C222.272 94.344 223.4 95.736 223.832 96.648C224.576 96.216 225.296 95.76 225.944 95.28L225.944 102.096L229.592 102.096L229.592 101.064L236.048 101.064L236.048 102L239.888 102L239.888 95.256C240.632 95.784 241.424 96.24 242.264 96.624C242.768 95.736 243.848 94.392 244.64 93.72C242.744 93.048 240.992 91.968 239.648 90.672L244.04 90.672L244.04 87.72L232.136 87.72L232.472 86.976L241.976 86.976L241.976 84.264L233.456 84.264L233.648 83.592L242.696 83.592L242.696 80.712L234.272 80.712L234.44 79.656L230.672 79.32ZM230.432 90.672L235.616 90.672L236.12 91.44L229.88 91.44L230.432 90.672ZM229.592 97.464L236.048 97.464L236.048 98.208L229.592 98.208L229.592 97.464ZM229.592 94.968L229.592 94.224L236.048 94.224L236.048 94.968L229.592 94.968Z">
</path>
</g>
</svg>
