<svg xmlns="http://www.w3.org/2000/svg" xmlns:xlink="http://www.w3.org/1999/xlink" width="466.6904296875" height="466.6904296875" viewBox="0 0 466.6904296875 466.6904296875" fill="none">
<circle cx="398.3452453613281" cy="165" transform="rotate(45.000002414836885 233.34524536132812 0)" r="165"   fill="#DEB385" >
</circle>
<path     fill="#FFF28C"  d="M120.553 119.863L120.553 119.863L233.69 233L120.553 346.137L120.553 346.137C58.0693 283.653 58.0693 182.347 120.553 119.863Z">
</path>
<path     fill="#C7FAFF"  d="M346.827 119.863L346.827 119.863L233.69 233L120.553 119.863L120.553 119.863C183.037 57.3791 284.344 57.3791 346.827 119.863Z">
</path>
<path     fill="#FFABD9"  d="M346.828 346.137L346.828 346.137L233.69 233L346.828 119.863L346.828 119.863C409.311 182.347 409.311 283.653 346.828 346.137Z">
</path>
<path     fill="#C1F29D"  d="M120.553 346.137L120.553 346.137L233.69 233L346.828 346.137L346.828 346.137C284.344 408.621 183.037 408.621 120.553 346.137Z">
</path>
<rect  x="210.99981689453125" y="75.99981689453125" width="47" height="30" transform="rotate(3.7017546877560877e-7 210.99981689453125 75.99981689453125)" rx="5"    fill="#E0BD96" >
</rect>
<g >
<path     fill="#FFFFFF"  d="M225.914 99.0721C230.138 99.7681 236.258 101.304 239.234 102.384L240.794 99.1201C237.602 98.0641 231.338 96.7441 227.354 96.2641L225.914 99.0721ZM230.258 79.2001C228.914 81.6721 226.514 84.4321 223.082 86.4961C223.826 87.0721 224.906 88.3921 225.386 89.2321C226.562 88.4401 227.618 87.5761 228.578 86.6881C229.154 87.3601 229.778 87.9601 230.45 88.5361C228.098 89.4961 225.386 90.1681 222.554 90.5761C223.202 91.3921 223.946 92.9041 224.258 93.8641C226.442 93.4561 228.554 92.9041 230.522 92.1841L229.178 94.8481C232.106 95.5201 236.522 96.7441 238.634 97.4881L240.098 94.3441C237.89 93.6721 233.498 92.6401 230.714 92.1121C231.77 91.7281 232.778 91.2961 233.714 90.7921C236.306 92.2321 239.354 93.1921 242.858 93.7441C243.338 92.7361 244.322 91.1761 245.114 90.3361C242.162 90.0481 239.474 89.4721 237.146 88.6321C239.234 87.0241 240.914 85.0081 242.066 82.5601L239.666 81.2401L239.09 81.3841L233.114 81.3841L234.002 79.9681L230.258 79.2001ZM236.762 84.3601C235.898 85.3441 234.818 86.2081 233.57 86.9761C232.442 86.2801 231.434 85.4881 230.618 84.6241L230.858 84.3601L236.762 84.3601Z">
</path>
</g>
<path    stroke="rgba(222, 179, 133, 1)" stroke-width="4"    d="M346.827 119.863L120.553 346.137">
</path>
<path    stroke="rgba(222, 179, 133, 1)" stroke-width="4"    d="M120.553 119.863L346.828 346.137">
</path>
<circle cx="358.6903991699219" cy="181.22341918945312" transform="rotate(45 233.69039916992188 56.223419189453125)" r="125"   fill="#F7D3AD" >
</circle>
<circle cx="344.126953125" cy="188" transform="rotate(45 234.126953125 78)" r="110"   fill="#FFEDD9" >
</circle>
<rect  x="76.9998779296875" y="256.69049072265625" width="47" height="30" transform="rotate(-89.99999962982454 76.9998779296875 256.69049072265625)" rx="5"    fill="#E0BD96" >
</rect>
<g >
<path     fill="#FFFFFF"  d="M85.3143 233.648C87.5223 233.696 90.1623 234.104 91.6023 234.896L92.7543 231.896C90.9063 230.984 88.1703 230.6 85.7223 230.648L85.3143 233.648ZM85.3143 225.032C87.0903 225.392 89.3703 226.064 91.0743 226.736L89.8983 226.952C86.9943 226.712 83.7543 226.712 80.1063 226.688L80.1063 229.904C90.3543 229.928 96.5943 229.568 100.242 235.712C100.818 234.92 102.018 233.936 102.834 233.48C101.178 230.84 99.0423 229.232 96.4023 228.248C99.1143 227.24 101.274 225.752 102.714 223.496C101.874 223.04 100.626 222.08 100.026 221.36C98.4903 224.144 95.4903 225.68 91.8663 226.544L92.5143 224.096C90.8823 223.328 88.4343 222.392 86.0583 221.6L85.3143 225.032ZM80.1063 236.192C80.9703 238.304 81.6903 241.4 82.1223 244.304C82.8423 243.92 84.0423 243.488 84.8103 243.344C84.7143 242.456 84.5943 241.52 84.4503 240.584L86.7783 240.584L86.7783 244.184L89.9703 244.184L89.9703 241.352C92.0583 242.216 94.3383 243.464 95.8023 244.784C96.7623 244.232 98.3463 243.416 99.4023 243.104C98.2503 242.192 96.6663 241.328 94.9623 240.584L102.81 240.584L102.81 237.2L93.9303 237.2C94.7463 236.72 95.5863 236.24 96.2103 235.952L93.3543 234.056C92.8263 234.488 90.7143 236.6 90.2103 237.2L89.9703 237.2L89.9703 234.56L86.7783 234.56L86.7783 237.2L83.8023 237.2C83.5383 236.096 83.2263 235.04 82.8903 234.056L80.1063 236.192Z">
</path>
</g>
<rect  x="256.69049072265625" y="389.6904296875" width="47" height="30" transform="rotate(-179.99999962982454 256.69049072265625 389.6904296875)" rx="5"    fill="#E0BD96" >
</rect>
<g >
<path     fill="#FFFFFF"  d="M238.706 377.968L228.722 377.968L228.722 377.32L238.706 377.32L238.706 377.968ZM238.706 375.448L228.722 375.448L228.722 374.776L238.706 374.776L238.706 375.448ZM238.706 380.488L228.722 380.488L228.722 379.84L238.706 379.84L238.706 380.488ZM242.066 382.36L242.066 372.904L238.514 372.904C239.93 371.8 242.042 370.864 244.946 370.192C244.298 369.688 243.362 368.512 242.954 367.744C241.61 368.176 240.41 368.632 239.33 369.16C238.73 368.56 238.106 368.032 237.434 367.552C239.786 367.024 242.45 366.736 245.186 366.616C244.682 365.896 244.154 364.696 243.914 363.88C240.29 364.168 236.834 364.696 233.858 365.68C231.122 364.648 227.858 364.096 224.018 363.88C223.586 364.792 222.77 366.208 222.098 366.952C224.906 367.024 227.45 367.24 229.682 367.648C228.266 368.536 227.066 369.664 226.154 371.032L228.338 372.376L228.938 372.232L234.914 372.232L234.29 372.904L225.194 372.904L225.194 382.36L232.298 382.36L232.034 383.032L223.298 383.032L223.298 385.816L244.058 385.816L244.058 383.032L235.826 383.032L235.922 382.36L242.066 382.36ZM233.666 368.728C234.53 369.064 235.298 369.472 235.946 369.928L231.482 369.928C232.13 369.472 232.85 369.088 233.666 368.728Z">
</path>
</g>
<rect  x="390.6904296875" y="209.99996948242188" width="48" height="30" transform="rotate(90 390.6904296875 209.99996948242188)" rx="5"    fill="#E0BD96" >
</rect>
<g >
<path     fill="#FFFFFF"  d="M387.37 230.672L385.978 230.48L385.978 223.232L383.098 223.232L383.098 229.856L382.426 229.64L382.426 224.144L379.714 224.144L379.714 228.488L378.97 228.056L378.97 221.984L376.018 221.984L376.018 225.728C374.866 224.552 373.834 223.136 372.946 221.432C372.346 222.272 370.954 223.4 370.042 223.832C370.474 224.576 370.93 225.296 371.41 225.944L364.594 225.944L364.594 229.592L365.626 229.592L365.626 236.048L364.69 236.048L364.69 239.888L371.434 239.888C370.906 240.632 370.45 241.424 370.066 242.264C370.954 242.768 372.298 243.848 372.97 244.64C373.642 242.744 374.722 240.992 376.018 239.648L376.018 244.04L378.97 244.04L378.97 232.136L379.714 232.472L379.714 241.976L382.426 241.976L382.426 233.456L383.098 233.648L383.098 242.696L385.978 242.696L385.978 234.272L387.034 234.44L387.37 230.672ZM376.018 230.432L376.018 235.616L375.25 236.12L375.25 229.88L376.018 230.432ZM369.226 229.592L369.226 236.048L368.482 236.048L368.482 229.592L369.226 229.592ZM371.722 229.592L372.466 229.592L372.466 236.048L371.722 236.048L371.722 229.592Z">
</path>
</g>
<path     fill="#8C6234"  d="M348.938 147.692L350.158 148.654L344.63 155.281C344.356 155.611 343.86 155.662 343.523 155.397L343.523 155.397C343.187 155.131 343.136 154.649 343.411 154.32L348.938 147.692Z">
</path>
<path     fill="#8BCC00"  d="M349.892 153.263L350.895 154.163C351.172 154.411 351.187 154.829 350.927 155.095L350.51 155.524C349.184 156.887 346.961 156.963 345.545 155.693L345.434 155.593C344.788 155.014 344.754 154.039 345.36 153.417L345.36 153.417C346.571 152.173 348.6 152.104 349.892 153.263Z">
</path>
<path     fill="#8BCC00"  d="M341.932 150.6L342.245 149.685C342.336 149.416 342.625 149.281 342.89 149.383L343.352 149.561C344.684 150.073 345.39 151.582 344.928 152.933L344.898 153.022C344.684 153.648 344.01 153.963 343.392 153.726L343.392 153.726C342.158 153.251 341.504 151.852 341.932 150.6Z">
</path>
<path     fill="#FF99BE"  d="M355.801 143.603L357.549 144.653C358.531 145.243 358.848 146.517 358.258 147.499L357.697 148.434C355.927 151.379 352.104 152.332 349.159 150.562L348.285 150.037C346.804 149.147 346.325 147.225 347.215 145.744L347.215 145.744C348.995 142.782 352.839 141.823 355.801 143.603Z">
</path>
<path     fill="#FF99BE"  d="M347.783 141.811L349.142 140.862C349.91 140.325 351.01 140.481 351.598 141.21L352.169 141.917C353.935 144.105 353.498 147.184 351.194 148.794L350.515 149.268C349.353 150.08 347.69 149.844 346.801 148.742L346.801 148.742C345.021 146.537 345.461 143.434 347.783 141.811Z">
</path>
<g filter="url(#filter_23)">
<path    stroke="rgba(0, 0, 0, 1)" stroke-width="0.2"    d="M345.225 152.579C345.312 153.274 343.926 154.81 343.794 154.457">
</path>
</g>
<path     fill="#8C6234"  d="M358.089 161.706L358.529 163.653L347.57 165.829C347.029 165.937 346.492 165.588 346.371 165.05L346.371 165.05C346.25 164.512 346.59 163.989 347.131 163.882L358.089 161.706Z">
</path>
<path     fill="#8BCC00"  d="M354.505 168.08L354.773 169.763C354.849 170.238 354.523 170.67 354.045 170.728L353.25 170.823C350.822 171.116 348.542 169.395 348.158 166.98L348.129 166.801C347.953 165.692 348.714 164.684 349.829 164.55L349.829 164.55C352.059 164.281 354.152 165.862 354.505 168.08Z">
</path>
<path     fill="#8BCC00"  d="M348.671 158.97L349.752 158.293C350.061 158.1 350.46 158.199 350.642 158.515L350.951 159.048C351.875 160.647 351.356 162.737 349.791 163.716L349.679 163.786C348.958 164.238 348.028 164.007 347.603 163.27L347.603 163.27C346.751 161.798 347.23 159.872 348.671 158.97Z">
</path>
<path     fill="#FF99BE"  d="M368.329 163.203L369.207 165.616C369.711 167 368.998 168.531 367.614 169.034L366.223 169.541C362.071 171.052 357.48 168.911 355.969 164.759L355.53 163.552C354.765 161.451 355.848 159.128 357.95 158.363L357.95 158.363C362.152 156.833 366.799 159 368.329 163.203Z">
</path>
<path     fill="#FF99BE"  d="M361.699 154.88L363.866 155.028C365.075 155.111 366.051 156.16 366.047 157.372L366.043 158.5C366.03 162.134 363.08 164.879 359.454 164.631L358.37 164.557C356.551 164.432 355.082 162.854 355.089 161.031L355.089 161.031C355.102 157.385 358.061 154.631 361.699 154.88Z">
</path>
<path d="M342.725 313.16L333.695 319.483C338.295 324.242 340.842 329.587 343.562 333.575C346.198 337.44 340.622 322.506 340.274 321.742C340.263 321.727 340.257 321.718 340.258 321.713C340.258 321.708 340.263 321.718 340.274 321.742C340.657 322.232 347.449 328.159 349.818 332.344C350.635 331.262 344.14 318.248 343.754 318.74C343.734 318.339 346.363 321.523 347.453 322.829C348.543 324.135 354.116 326.21 353.717 325.414C351.751 324.433 342.833 314.008 342.725 313.16ZM342.794 313.111C342.741 313.095 342.719 313.112 342.725 313.16L342.794 313.111ZM340.258 321.713C340.257 321.718 340.263 321.727 340.274 321.742C340.263 321.718 340.258 321.708 340.258 321.713Z" fill-rule="evenodd"  fill="#8CC219" >
</path>
<path d="M346.967 306.712L343.15 314.538C346.748 315.38 349.302 317.486 351.672 318.694C353.969 319.866 347.709 313.299 347.354 312.991C347.345 312.987 347.339 312.984 347.338 312.981C347.337 312.977 347.343 312.981 347.354 312.991C347.673 313.118 352.757 313.695 354.969 315.179C355.208 314.162 348.825 309.165 348.708 309.633C348.613 309.399 350.765 310.162 351.655 310.469C352.544 310.776 356.138 309.563 355.747 309.258C354.427 309.535 347.204 307.178 346.967 306.712ZM346.997 306.652C346.963 306.665 346.954 306.686 346.967 306.712L346.997 306.652ZM347.338 312.981C347.339 312.984 347.345 312.987 347.354 312.991C347.343 312.981 347.337 312.977 347.338 312.981Z" fill-rule="evenodd"  fill="#8CC219" >
</path>
<g filter="url(#filter_31)">
<ellipse cx="339.1907196044922" cy="348.1906204223633" transform="rotate(90.00000037017547 328.690673828125 337.6905822753906)" rx="10.500045776367188" ry="10.500038146972656"   fill="#FFF48C" >
</ellipse>
</g>
<path     fill="#FCDAB6"  d="M174.138 354.398L172.057 353.841L173.981 346.66C174.135 346.085 174.726 345.744 175.3 345.898L175.3 345.898C175.875 346.052 176.216 346.643 176.062 347.217L174.138 354.398Z">
</path>
<path     fill="#5C3D1C"  d="M168.461 372.018L168.461 372.018C165.506 371.227 163.753 368.19 164.545 365.235L167.243 355.164C167.814 353.034 170.002 351.771 172.132 352.341L175.12 353.142C177.25 353.713 178.513 355.901 177.943 358.03L175.244 368.102C174.452 371.057 171.415 372.81 168.461 372.018Z">
</path>
<path     fill="#C1F29D"  d="M175.228 368.136L175.228 368.136C175.479 368.181 175.648 368.422 175.604 368.674L174.812 373.282L170.266 372.462C170.012 372.416 169.841 372.173 169.885 371.918L169.893 371.872C170.326 369.355 172.714 367.683 175.228 368.136Z">
</path>
<path     fill="#FFE0BF"  d="M165.816 368.271L165.816 368.271C165.726 368.247 165.673 368.155 165.697 368.066L165.792 367.711C165.884 367.37 166.234 367.168 166.575 367.26L166.575 367.26C166.726 367.3 166.816 367.456 166.776 367.607L166.741 367.737C166.633 368.14 166.219 368.379 165.816 368.271Z">
</path>
<path     fill="#FFE0BF"  d="M167.107 363.452L167.107 363.452C167.018 363.428 166.965 363.336 166.989 363.246L167.084 362.892C167.175 362.551 167.526 362.349 167.866 362.44L167.866 362.44C168.018 362.481 168.108 362.636 168.067 362.788L168.032 362.918C167.924 363.321 167.51 363.56 167.107 363.452Z">
</path>
<path     fill="#FFE0BF"  d="M168.58 366.277L168.58 366.277C168.49 366.254 168.437 366.161 168.461 366.072L168.556 365.717C168.648 365.376 168.998 365.174 169.339 365.266L169.339 365.266C169.491 365.306 169.58 365.462 169.54 365.613L169.505 365.743C169.397 366.146 168.983 366.385 168.58 366.277Z">
</path>
<path     fill="#FFE0BF"  d="M172.008 365.373L172.008 365.373C171.918 365.349 171.865 365.257 171.889 365.167L171.984 364.813C172.076 364.472 172.426 364.27 172.767 364.361L172.767 364.361C172.918 364.402 173.008 364.557 172.968 364.709L172.933 364.839C172.825 365.242 172.411 365.481 172.008 365.373Z">
</path>
<path     fill="#FFE0BF"  d="M171.655 361.936L171.655 361.936C171.565 361.912 171.512 361.82 171.536 361.73L171.631 361.376C171.722 361.035 172.073 360.833 172.414 360.924L172.414 360.924C172.565 360.965 172.655 361.12 172.615 361.272L172.58 361.402C172.472 361.805 172.058 362.044 171.655 361.936Z">
</path>
<path     fill="#FFE0BF"  d="M169.856 359.962L169.856 359.962C169.777 360.006 169.674 359.978 169.627 359.901L169.411 359.547C169.232 359.253 169.332 358.88 169.634 358.714L169.634 358.714C169.769 358.641 169.943 358.688 170.022 358.818L170.12 358.978C170.332 359.326 170.214 359.767 169.856 359.962Z">
</path>
<path     fill="#FFE0BF"  d="M174.647 359.092L174.647 359.092C174.557 359.068 174.504 358.976 174.528 358.886L174.623 358.532C174.714 358.191 175.065 357.989 175.406 358.08L175.406 358.08C175.557 358.12 175.647 358.276 175.606 358.428L175.572 358.558C175.464 358.961 175.05 359.2 174.647 359.092Z">
</path>
<path     fill="#FFE0BF"  d="M172.206 356.311L172.206 356.311C172.116 356.287 172.063 356.195 172.087 356.106L172.182 355.751C172.274 355.41 172.624 355.208 172.965 355.299L172.965 355.299C173.116 355.34 173.206 355.496 173.166 355.647L173.131 355.777C173.023 356.18 172.609 356.419 172.206 356.311Z">
</path>
<path     fill="#FFE0BF"  d="M169.24 355.387L169.24 355.387C169.166 355.439 169.061 355.422 169.007 355.35L168.75 355.013C168.541 354.74 168.602 354.361 168.884 354.166L168.884 354.166C169.009 354.079 169.186 354.107 169.278 354.228L169.398 354.386C169.644 354.708 169.573 355.157 169.24 355.387Z">
</path>
<path     fill="#FFE0BF"  d="M174.474 363.299L174.474 363.299C174.385 363.275 174.332 363.183 174.356 363.094L174.451 362.739C174.542 362.398 174.892 362.196 175.233 362.287L175.233 362.287C175.385 362.328 175.475 362.484 175.434 362.635L175.399 362.765C175.291 363.168 174.877 363.407 174.474 363.299Z">
</path>
<path     fill="#FFE0BF"  d="M175.482 355.974L175.482 355.974C175.392 355.95 175.339 355.858 175.363 355.768L175.458 355.414C175.55 355.073 175.9 354.87 176.241 354.962L176.241 354.962C176.392 355.002 176.482 355.158 176.442 355.31L176.407 355.44C176.299 355.843 175.885 356.082 175.482 355.974Z">
</path>
<path     fill="#FFD129"  d="M114.701 320.343C113.414 322.582 114.251 325.32 116.57 326.457L116.619 326.481C121.311 328.783 127.226 326.975 129.83 322.444L131.107 320.223C131.659 319.263 131.3 318.09 130.306 317.603L127.759 316.353C123.121 314.078 117.275 315.865 114.701 320.343Z">
</path>
<rect  transform="matrix(0.2254432588815689, 0.9742226600646973, -0.9460457563400269, 0.3240264356136322, 128.22137451171875, 318.469970703125)" x="0" y="0" width="1.2003379908460516" height="15.77366465402736" rx="20"    fill="#B08454" >
</rect>
<rect  transform="matrix(-0.2899813652038574, 0.9570077061653137, -0.9744118452072144, -0.22473329305648804, 127.62542724609375, 321.9575500488281)" x="0" y="0" width="0.8772131873028114" height="5.58419268916021" rx="20"    fill="#B08454" >
</rect>
<rect  transform="matrix(-0.28998085856437683, 0.9570064544677734, -0.9744164347648621, -0.22473448514938354, 122.46539306640625, 323.3305969238281)" x="0" y="0" width="0.8772131873028114" height="5.094132389392928" rx="20"    fill="#B08454" >
</rect>
<rect  transform="matrix(0.8802027106285095, 0.474755197763443, -0.4938596785068512, 0.8695428371429443, 124.04180908203125, 315.947509765625)" x="0" y="0" width="0.7995826892844392" height="6.113188278234716" rx="20"    fill="#B08454" >
</rect>
<rect  transform="matrix(0.9821813106536865, 0.1879042237997055, -0.259016215801239, 0.9658706188201904, 119.34527587890625, 318.13458251953125)" x="0" y="0" width="0.8116253130163618" height="4.886578795551429" rx="20"    fill="#B08454" >
</rect>
<path     fill="#FFD129"  d="M117.27 310.111L117.096 310.417C116.185 312.016 116.786 313.969 118.438 314.78C121.743 316.4 125.898 315.122 127.72 311.923L129.184 309.353C129.574 308.668 129.316 307.831 128.608 307.483L127.53 306.954C123.877 305.162 119.283 306.576 117.27 310.111Z">
</path>
<rect  transform="matrix(0.17034056782722473, 0.9854397177696228, -0.927074670791626, 0.37487757205963135, 127.08905029296875, 308.2269287109375)" x="0" y="0" width="0.9056189745887842" height="11.80534947125506" rx="20"    fill="#B08454" >
</rect>
<rect  transform="matrix(-0.3090180456638336, 0.9510781168937683, -0.9799175262451172, -0.1993955671787262, 126.53778076171875, 310.9345703125)" x="0" y="0" width="0.6890023577484811" height="3.9610460405695593" rx="20"    fill="#B08454" >
</rect>
<rect  transform="matrix(-0.3090178072452545, 0.9510763883590698, -0.9799343347549438, -0.19939909875392914, 122.76666259765625, 312.16082763671875)" x="0" y="0" width="0.6890023577484811" height="3.613384809427596" rx="20"    fill="#B08454" >
</rect>
<rect  transform="matrix(0.8779047131538391, 0.47872984409332275, -0.4909502863883972, 0.8711851835250854, 124.16217041015625, 306.4191589355469)" x="0" y="0" width="0.5631983580951775" height="4.815524370221534" rx="20"    fill="#B08454" >
</rect>
<rect  transform="matrix(0.9874175190925598, 0.15866652131080627, -0.2813013792037964, 0.9596118330955505, 120.69769287109375, 308.2583312988281)" x="0" y="0" width="0.5770059343484578" height="3.833645594437538" rx="20"    fill="#B08454" >
</rect>
<path     fill="#FFD129"  d="M106.73 312.266L106.313 312.529C104.264 313.821 103.577 316.573 104.779 318.675C107.184 322.881 112.455 324.196 116.553 321.613L119.924 319.488C120.802 318.935 121.096 317.755 120.581 316.854L119.826 315.534C117.152 310.855 111.288 309.393 106.73 312.266Z">
</path>
<rect  transform="matrix(-0.35431480407714844, 0.935136079788208, -0.9893394708633423, -0.1456221640110016, 118.45709228515625, 316.7095642089844)" x="0" y="0" width="1.2597609305479127" height="14.819472666177221" rx="20"    fill="#B08454" >
</rect>
<rect  transform="matrix(-0.7242527604103088, 0.6895219087600708, -0.7056272029876709, -0.7085810899734497, 116.01959228515625, 319.58734130859375)" x="0" y="0" width="0.9313165904135134" height="5.082241601410632" rx="20"    fill="#B08454" >
</rect>
<rect  transform="matrix(-0.7242632508277893, 0.689531683921814, -0.7056328654289246, -0.7085868716239929, 111.17144775390625, 318.4845275878906)" x="0" y="0" width="0.9313016330722954" height="4.63621309115431" rx="20"    fill="#B08454" >
</rect>
<rect  transform="matrix(0.45821428298950195, 0.8887896537780762, -0.8435208797454834, 0.537095844745636, 116.58233642578125, 312.53717041015625)" x="0" y="0" width="0.7446855673572804" height="6.3809547108498155" rx="20"    fill="#B08454" >
</rect>
<rect  transform="matrix(0.7361937761306763, 0.6768493056297302, -0.7049363255500793, 0.709272563457489, 111.64117431640625, 312.3803405761719)" x="0" y="0" width="0.7376734493501257" height="5.195388615918261" rx="20"    fill="#B08454" >
</rect>
<path     fill="#FF7575"  d="M125.237 151.613L126.345 148.727C127.962 144.515 125.858 139.79 121.646 138.173L121.385 138.073C116.622 136.245 111.394 139.315 110.671 144.366C107.829 148.603 109.659 154.383 114.423 156.212L114.683 156.312C118.895 157.928 123.62 155.825 125.237 151.613Z">
</path>
<path     fill="#8BCC00"  d="M113.494 139.937L113.494 139.937C113.716 139.887 113.946 140.025 114.006 140.245L114.688 142.729C114.97 143.756 114.355 144.779 113.316 145.012L113.316 145.012C112.796 145.129 112.261 144.808 112.12 144.294L111.73 142.874C111.368 141.553 112.157 140.238 113.494 139.937Z">
</path>
<path     fill="#8BCC00"  d="M116.379 145.44L116.604 145.808C116.722 146.002 116.656 146.248 116.456 146.357L115.818 146.705C114.886 147.213 113.682 146.891 113.129 145.984L113.129 145.984C112.853 145.531 113.007 144.957 113.473 144.703L113.525 144.675C114.514 144.135 115.792 144.477 116.379 145.44Z">
</path>
<path     fill="#8BCC00"  d="M110.609 149.777L110.609 149.777C110.382 149.731 110.232 149.509 110.275 149.281L110.724 146.855C110.921 145.793 111.94 145.106 112.999 145.321L112.999 145.321C113.528 145.428 113.878 145.946 113.779 146.477L113.533 147.803C113.28 149.17 111.971 150.053 110.609 149.777Z">
</path>
<rect  x="109.75521850585938" y="145.03460693359375" width="1.90478515625" height="4.002593994140625" transform="rotate(-69.00000252660544 109.75521850585938 145.03460693359375)" rx="20"    fill="#77AD02" >
</rect>
<path     fill="#FF7575"  d="M124.02 156.763L123.465 153.345C122.749 148.929 118.566 145.779 114.124 146.31L114.092 146.314C108.96 146.927 105.916 152.108 107.84 156.954C107.532 162.067 112.109 166.338 117.241 165.724L117.273 165.721C121.716 165.19 124.736 161.179 124.02 156.763Z">
</path>
<path     fill="#8BCC00"  d="M108.035 151.69L108.035 151.69C108.201 151.542 108.462 151.551 108.617 151.711L110.529 153.684C111.252 154.431 111.211 155.599 110.437 156.293L110.437 156.293C110.049 156.641 109.442 156.619 109.08 156.246L107.917 155.046C106.986 154.085 107.039 152.583 108.035 151.69Z">
</path>
<path     fill="#8BCC00"  d="M113.218 155.204L113.659 155.464C113.859 155.582 113.922 155.837 113.801 156.035L113.473 156.571C112.908 157.493 111.696 157.795 110.765 157.246L110.765 157.246C110.3 156.971 110.151 156.376 110.433 155.915L110.446 155.895C111.024 154.951 112.265 154.642 113.218 155.204Z">
</path>
<path     fill="#8BCC00"  d="M110.51 161.803L110.51 161.803C110.292 161.868 110.054 161.746 109.978 161.532L109.115 159.08C108.763 158.078 109.302 157.02 110.319 156.716L110.319 156.716C110.828 156.564 111.383 156.847 111.559 157.348L112.058 158.764C112.511 160.051 111.818 161.412 110.51 161.803Z">
</path>
<rect  transform="matrix(-0.1601712554693222, -0.9871135950088501, 0.9929327368736267, -0.1186605915427208, 107.39056396484375, 157.97808837890625)" x="0" y="0" width="1.9278426794549648" height="3.9580755362386295" rx="20"    fill="#77AD02" >
</rect>
<g filter="url(#filter_75)">
<path    stroke="rgba(0, 0, 0, 1)" stroke-width="0.2"    d="M350.377 163.602C349.897 164.368 347.254 164.787 347.41 164.328">
</path>
</g>
<path d="M148.569 102.575C148.281 102.747 148.254 102.832 148.254 103.648C148.254 104.05 148.24 104.374 148.226 104.374C148.213 104.374 148.085 104.28 147.943 104.167C147.609 103.896 147.513 103.865 147.326 103.941C147.079 104.041 146.928 104.257 146.928 104.501L146.928 104.712L147.591 105.366L148.258 106.024L148.245 106.457L148.231 106.89L147.6 106.421C147.051 106.011 146.951 105.952 146.791 105.952C146.695 105.952 146.562 105.975 146.498 106.002C146.288 106.101 146.173 106.489 146.301 106.701C146.333 106.75 146.781 107.174 147.307 107.639L148.254 108.486L148.254 108.82C148.254 109.081 148.24 109.149 148.199 109.126C148.167 109.108 147.714 108.811 147.193 108.468C146.544 108.044 146.205 107.846 146.118 107.846C145.945 107.846 145.712 107.995 145.625 108.157C145.538 108.328 145.364 109.027 145.218 109.825C145.154 110.154 145.094 110.434 145.09 110.443C145.081 110.447 144.962 110.362 144.829 110.245L144.587 110.033L144.687 108.739C144.792 107.345 144.783 107.197 144.582 107.057C144.527 107.016 144.386 106.989 144.248 106.989C143.764 106.989 143.64 107.26 143.521 108.581L143.489 108.883L143.165 108.599L142.84 108.31L142.854 107.318C142.867 106.331 142.863 106.327 142.758 106.2C142.675 106.11 142.593 106.074 142.433 106.056C142.008 106.006 141.83 106.173 141.715 106.723L141.647 107.07L141.089 106.556L140.526 106.042L140.234 106.042C139.987 106.042 139.918 106.061 139.804 106.155C139.649 106.281 139.52 106.525 139.52 106.687C139.52 106.836 139.699 107.084 140.151 107.571C140.357 107.792 140.526 107.986 140.526 107.999C140.526 108.013 140.44 108.026 140.334 108.026C140.065 108.031 139.772 108.171 139.685 108.337C139.53 108.626 139.635 109.068 139.877 109.158C139.959 109.19 140.261 109.19 140.837 109.153L141.674 109.104L141.98 109.37C142.525 109.843 142.52 109.812 142.003 109.87C141.007 109.992 140.755 110.118 140.755 110.488C140.755 110.741 140.947 111.079 141.112 111.124C141.171 111.137 141.738 111.088 142.369 111.016L143.521 110.88L143.75 111.097C143.873 111.218 143.96 111.327 143.947 111.345C143.928 111.358 143.686 111.408 143.398 111.457C142.223 111.656 141.747 111.823 141.638 112.075C141.541 112.305 141.592 112.476 141.889 112.9C142.035 113.108 142.355 113.567 142.598 113.919L143.041 114.564L142.689 114.559L142.333 114.559L141.404 113.504C140.398 112.355 140.362 112.328 140.001 112.445C139.795 112.512 139.703 112.679 139.703 112.995C139.703 113.234 139.708 113.243 140.234 113.888L140.76 114.541L140.325 114.555L139.891 114.568L139.146 113.82C138.483 113.157 138.382 113.076 138.249 113.076C137.943 113.076 137.655 113.319 137.614 113.604C137.591 113.77 137.609 113.802 137.92 114.172L138.245 114.564L137.367 114.564C136.544 114.564 136.48 114.568 136.311 114.663C136.082 114.789 136 114.947 136 115.24C136 115.502 136.082 115.687 136.256 115.822C136.37 115.907 136.439 115.916 137.125 115.916C137.536 115.916 137.874 115.93 137.874 115.944C137.874 115.957 137.81 116.056 137.733 116.164C137.6 116.345 137.591 116.385 137.609 116.642C137.637 116.994 137.769 117.134 138.071 117.134C138.259 117.134 138.286 117.116 138.88 116.525L139.498 115.916L139.987 115.916C140.261 115.916 140.481 115.93 140.481 115.944C140.481 115.962 140.38 116.106 140.257 116.273C139.868 116.8 139.703 117.062 139.703 117.17C139.703 117.323 139.891 117.576 140.06 117.657C140.398 117.815 140.622 117.648 141.642 116.444L142.09 115.916L142.387 115.916C142.63 115.916 142.68 115.93 142.657 115.984C142.643 116.02 142.415 116.39 142.145 116.805C141.875 117.219 141.638 117.616 141.615 117.679C141.546 117.873 141.67 118.103 141.903 118.22C142.159 118.347 142.95 118.541 143.736 118.667L144.363 118.77L144.148 119.014L143.933 119.262L143.476 119.235C143.224 119.217 142.63 119.172 142.15 119.136C141.199 119.059 141.025 119.073 140.865 119.23C140.705 119.388 140.705 119.794 140.865 119.952C141.025 120.11 141.523 120.236 142.506 120.358L142.721 120.385L142.447 120.687L142.172 120.989L141.107 120.971L140.037 120.957L139.918 121.101C139.822 121.21 139.795 121.291 139.795 121.453C139.795 121.881 140.06 122.093 140.59 122.093C140.755 122.093 140.892 122.107 140.892 122.125C140.892 122.147 140.659 122.404 140.38 122.702C139.708 123.419 139.52 123.653 139.52 123.798C139.52 123.974 139.863 124.519 139.991 124.537C140.302 124.591 140.723 124.339 141.336 123.735L141.756 123.324L141.802 123.545C141.898 123.974 142.067 124.167 142.351 124.167C142.538 124.167 142.895 123.955 142.932 123.825C142.945 123.775 142.941 123.392 142.918 122.982L142.881 122.229L143.215 121.868C143.402 121.67 143.572 121.507 143.594 121.507C143.617 121.507 143.636 121.593 143.636 121.697C143.636 122.184 143.782 122.743 143.956 122.914C144.129 123.081 144.459 123.094 144.692 122.937L144.847 122.833L144.838 122.224C144.834 121.89 144.797 121.358 144.76 121.034L144.696 120.448L144.93 120.182L145.163 119.916L145.268 120.52C145.474 121.692 145.634 122.08 145.945 122.184C146.036 122.215 146.164 122.224 146.228 122.206C146.292 122.193 146.699 121.94 147.129 121.652C147.559 121.358 147.989 121.074 148.085 121.016L148.254 120.912L148.254 121.295L148.254 121.674L148.075 121.791C147.545 122.138 146.301 123.261 146.26 123.432C146.187 123.717 146.507 124.167 146.781 124.167C146.873 124.167 147.083 124.037 147.495 123.726C147.815 123.487 148.117 123.261 148.167 123.225C148.249 123.166 148.254 123.18 148.254 123.586L148.254 124.01L147.591 124.663L146.928 125.317L146.928 125.597C146.928 125.935 147.038 126.093 147.303 126.138C147.554 126.174 147.673 126.129 147.966 125.876L148.231 125.646L148.254 126.634C148.277 127.675 148.29 127.734 148.51 127.905C148.601 127.977 148.697 128 148.903 128C149.223 128 149.411 127.914 149.534 127.716C149.616 127.585 149.625 127.486 149.625 126.656L149.625 125.741L149.831 125.881C150.247 126.165 150.654 126.219 150.837 126.016C150.887 125.957 150.929 125.827 150.942 125.673L150.965 125.425L150.293 124.763L149.625 124.095L149.625 123.613L149.625 123.126L150.256 123.604C150.919 124.1 151.015 124.14 151.262 124.014C151.45 123.915 151.582 123.757 151.614 123.577C151.656 123.365 151.605 123.311 150.476 122.319L149.63 121.575L149.63 121.291C149.625 121.138 149.639 121.011 149.653 121.011C149.667 121.011 150.037 121.255 150.481 121.557C150.919 121.854 151.354 122.129 151.441 122.17C151.738 122.292 151.985 122.179 152.154 121.845C152.236 121.683 152.433 120.853 152.511 120.358C152.588 119.839 152.593 119.835 152.858 120.078L153.082 120.285L152.945 121.431C152.872 122.062 152.826 122.625 152.84 122.684C152.881 122.846 153.229 123.04 153.471 123.04C153.818 123.036 153.928 122.869 154.042 122.197C154.079 121.954 154.125 121.674 154.143 121.579L154.175 121.404L154.532 121.737L154.893 122.071L154.843 122.851C154.774 123.829 154.801 123.983 155.053 124.113C155.195 124.19 155.506 124.181 155.666 124.095C155.835 124.01 155.977 123.721 155.981 123.455C155.981 123.351 155.995 123.266 156.009 123.266C156.022 123.266 156.265 123.478 156.544 123.739C157.261 124.402 157.453 124.537 157.645 124.537C157.934 124.537 158.359 124.212 158.359 123.996C158.359 123.717 158.007 123.207 157.303 122.477C157.129 122.296 156.987 122.138 156.987 122.12C156.987 122.107 157.092 122.093 157.225 122.093C157.549 122.093 157.824 121.958 157.924 121.746C158.039 121.516 157.993 121.205 157.833 121.07C157.719 120.971 157.691 120.966 156.694 120.966L155.675 120.966L155.396 120.66L155.117 120.349L155.698 120.299C156.717 120.209 157.033 120.051 157.033 119.623C157.033 119.303 156.886 119.1 156.644 119.082C156.47 119.068 154.683 119.181 154.234 119.235C154.02 119.262 154.01 119.257 153.754 119.014C153.503 118.775 153.494 118.761 153.603 118.739C153.667 118.73 154.088 118.644 154.541 118.559C155.51 118.374 155.789 118.293 155.954 118.166C156.063 118.081 156.073 118.045 156.073 117.761L156.073 117.445L155.574 116.728C155.3 116.336 155.062 115.993 155.048 115.966C155.025 115.93 155.126 115.916 155.373 115.916L155.73 115.916L155.94 116.196C156.054 116.354 156.379 116.751 156.667 117.075C157.234 117.733 157.321 117.783 157.677 117.679C157.897 117.612 157.993 117.449 157.993 117.138C157.993 116.904 157.998 116.908 157.458 116.232C157.348 116.097 157.261 115.971 157.261 115.948C157.261 115.93 157.495 115.916 157.783 115.916L158.299 115.916L158.418 116.092C158.482 116.187 158.729 116.462 158.962 116.701C159.36 117.107 159.401 117.134 159.566 117.134C159.895 117.134 160.188 116.841 160.188 116.512C160.188 116.426 160.128 116.3 160.028 116.169C159.941 116.052 159.868 115.953 159.868 115.939C159.868 115.925 160.224 115.916 160.659 115.916C161.431 115.916 161.45 115.912 161.619 115.799C161.82 115.669 161.879 115.542 161.879 115.258C161.879 115.028 161.806 114.861 161.628 114.699C161.509 114.586 161.495 114.586 160.499 114.564L159.488 114.541L159.767 114.239C160.078 113.901 160.119 113.802 160.078 113.504C160.032 113.229 159.849 113.076 159.552 113.076L159.337 113.076L158.766 113.649C158.45 113.969 158.135 114.302 158.066 114.393L157.938 114.564L157.485 114.564C157.234 114.564 157.033 114.555 157.033 114.541C157.033 114.532 157.179 114.343 157.357 114.127C157.783 113.604 158.03 113.189 158.066 112.936C158.089 112.76 158.08 112.715 157.975 112.594C157.819 112.413 157.527 112.355 157.316 112.463C157.243 112.499 156.781 112.99 156.301 113.549L155.419 114.564L155.08 114.564C154.893 114.564 154.747 114.55 154.756 114.528C154.765 114.51 154.989 114.176 155.263 113.788C156.196 112.445 156.274 112.278 156.077 112.03C155.908 111.818 155.295 111.624 154.134 111.403L153.869 111.354L154.102 111.119L154.335 110.885L155.355 111.007C156.749 111.178 156.676 111.182 156.873 110.921C157.001 110.754 157.033 110.668 157.033 110.497C157.033 110.321 157.014 110.272 156.896 110.177C156.763 110.064 156.379 109.956 155.913 109.897C155.524 109.848 155.474 109.834 155.51 109.767C155.528 109.731 155.679 109.568 155.839 109.401L156.132 109.104L156.882 109.153C157.723 109.208 157.837 109.185 158.066 108.915C158.162 108.802 158.18 108.743 158.162 108.599C158.126 108.324 157.924 108.157 157.559 108.094C157.458 108.076 157.362 108.049 157.339 108.04C157.321 108.026 157.476 107.832 157.687 107.607C158.167 107.088 158.359 106.827 158.359 106.687C158.359 106.538 158.203 106.25 158.057 106.137C157.961 106.065 157.87 106.042 157.641 106.042L157.348 106.042L156.758 106.588C156.434 106.886 156.155 107.147 156.141 107.174C156.082 107.264 156.027 107.206 156.027 107.052C156.027 106.764 155.885 106.259 155.771 106.146C155.62 105.997 155.341 106.006 155.085 106.164C154.815 106.336 154.792 106.408 154.838 106.904C154.861 107.138 154.884 107.566 154.884 107.859L154.884 108.391L154.6 108.698C154.44 108.869 154.298 109.009 154.285 109.014C154.266 109.018 154.244 108.82 154.225 108.576C154.161 107.715 154.029 107.192 153.837 107.048C153.796 107.016 153.667 106.989 153.549 106.989C153.375 106.989 153.297 107.016 153.137 107.138C152.95 107.282 152.94 107.3 152.945 107.512C152.95 107.711 153.114 109.483 153.169 109.884C153.192 110.033 153.169 110.073 152.959 110.303C152.826 110.443 152.707 110.538 152.689 110.52C152.671 110.502 152.611 110.231 152.552 109.92C152.415 109.176 152.204 108.328 152.113 108.148C151.861 107.666 151.646 107.72 150.27 108.63L149.625 109.059L149.625 108.775L149.625 108.486L150.394 107.832C150.814 107.472 151.262 107.075 151.386 106.949C151.596 106.737 151.614 106.696 151.61 106.511C151.605 106.241 151.454 106.088 151.166 106.056C151.052 106.042 150.91 106.042 150.851 106.056C150.791 106.074 150.499 106.268 150.197 106.489L149.648 106.895L149.635 106.412L149.621 105.934L150.288 105.276C150.938 104.636 150.951 104.618 150.951 104.428C150.951 104.072 150.759 103.878 150.403 103.878C150.275 103.878 149.932 104.081 149.786 104.239C149.74 104.289 149.685 104.329 149.662 104.329C149.644 104.329 149.625 104.023 149.625 103.653C149.625 102.922 149.603 102.823 149.379 102.62C149.205 102.463 148.798 102.44 148.569 102.575ZM146.987 109.704C147.22 109.857 147.6 110.118 147.833 110.29L148.254 110.596L148.254 110.88L148.254 111.169L147.476 111.602C147.047 111.845 146.681 112.035 146.663 112.035C146.644 112.03 146.516 111.904 146.375 111.75L146.118 111.475L146.178 111.07C146.288 110.339 146.48 109.424 146.525 109.424C146.548 109.424 146.754 109.55 146.987 109.704ZM151.4 110.132C151.477 110.524 151.564 111.011 151.596 111.218L151.656 111.593L151.464 111.782L151.272 111.971L150.691 111.683C150.371 111.53 150 111.331 149.868 111.245L149.625 111.092L149.625 110.804C149.625 110.52 149.63 110.515 149.822 110.362C150.037 110.186 151.185 109.424 151.23 109.424C151.249 109.424 151.322 109.744 151.4 110.132ZM150.16 112.945C150.81 113.297 151.418 113.626 151.509 113.68L151.683 113.775L151.683 115.276L151.683 116.773L151.368 116.976C150.823 117.323 149.132 118.261 149.049 118.261C148.88 118.261 147.266 117.382 146.667 116.963L146.379 116.764L146.379 115.285L146.379 113.806L147.147 113.356C147.797 112.972 148.94 112.319 148.972 112.31C148.976 112.31 149.511 112.598 150.16 112.945ZM145.25 112.576L145.442 112.751L145.222 112.95L145.007 113.148L145.007 113.856L145.007 114.564L144.696 114.564C144.395 114.564 144.386 114.559 144.299 114.415C144.253 114.338 143.979 113.919 143.695 113.486C143.407 113.058 143.183 112.697 143.192 112.684C143.224 112.652 144.692 112.409 144.884 112.404C145.026 112.4 145.09 112.431 145.25 112.576ZM153.731 112.535C154.198 112.612 154.587 112.679 154.6 112.688C154.619 112.711 153.663 114.095 153.434 114.37C153.329 114.501 153.242 114.564 153.169 114.564C153.064 114.564 153.064 114.555 153.041 113.964C153.018 113.252 152.968 113.081 152.73 112.846L152.547 112.666L152.652 112.535C152.712 112.463 152.785 112.404 152.817 112.404C152.854 112.4 153.265 112.463 153.731 112.535ZM145.007 116.651C145.007 117.292 145.021 117.409 145.094 117.558L145.186 117.729L144.971 117.702C144.66 117.657 143.206 117.395 143.183 117.377C143.174 117.373 143.389 117.039 143.659 116.642L144.152 115.916L144.578 115.916L145.007 115.916L145.007 116.651ZM153.791 116.219C153.933 116.39 154.17 116.71 154.326 116.94L154.609 117.355L154.436 117.4C154.298 117.436 153.425 117.607 152.908 117.697C152.835 117.706 152.78 117.702 152.78 117.688C152.78 117.67 152.835 117.598 152.908 117.526C153.032 117.4 153.032 117.395 153.046 116.656L153.059 115.916L153.302 115.916L153.539 115.916L153.791 116.219ZM147.056 118.798C147.275 118.915 147.632 119.109 147.856 119.226C148.075 119.343 148.254 119.456 148.254 119.474C148.254 119.514 146.516 120.669 146.498 120.642C146.493 120.637 146.416 120.254 146.324 119.794L146.155 118.96L146.37 118.77C146.489 118.667 146.599 118.581 146.621 118.577C146.64 118.577 146.836 118.676 147.056 118.798ZM151.528 119.046C151.496 119.366 151.285 120.606 151.262 120.633C151.253 120.642 150.979 120.475 150.65 120.263C150.325 120.051 149.964 119.826 149.845 119.758C149.721 119.69 149.625 119.614 149.625 119.587C149.625 119.555 149.868 119.402 150.165 119.235C150.458 119.073 150.833 118.861 150.997 118.761L151.294 118.586L151.427 118.68C151.55 118.766 151.555 118.779 151.528 119.046Z"   fill="#9EEFFF" >
</path>
<path d="M148.734 112.517C148.19 112.801 147.289 113.315 146.95 113.536C146.411 113.892 146.425 113.843 146.425 115.308C146.425 116.679 146.429 116.692 146.768 116.954C147.156 117.26 148.821 118.171 148.985 118.171C149.164 118.171 150.864 117.274 151.303 116.949C151.477 116.823 151.555 116.724 151.591 116.602C151.623 116.494 151.637 116.011 151.628 115.2L151.614 113.969L151.404 113.779C151.29 113.68 150.979 113.468 150.718 113.315C150.211 113.022 149.159 112.463 149.035 112.422C148.994 112.409 148.857 112.454 148.734 112.517Z"   fill="#D9F9FF" >
</path>
<path d="M163.569 115.889C163.446 115.962 163.434 115.999 163.434 116.349C163.434 116.521 163.428 116.66 163.422 116.66C163.416 116.66 163.362 116.619 163.301 116.571C163.158 116.455 163.117 116.441 163.036 116.474C162.93 116.517 162.866 116.609 162.866 116.714L162.866 116.805L163.15 117.085L163.436 117.367L163.43 117.552L163.424 117.738L163.154 117.537C162.919 117.361 162.876 117.336 162.807 117.336C162.766 117.336 162.709 117.346 162.682 117.357C162.591 117.4 162.542 117.566 162.597 117.657C162.611 117.678 162.803 117.86 163.028 118.059L163.434 118.422L163.434 118.565C163.434 118.677 163.428 118.706 163.411 118.696C163.397 118.689 163.203 118.561 162.979 118.414C162.701 118.233 162.556 118.147 162.519 118.147C162.444 118.147 162.345 118.211 162.307 118.281C162.27 118.354 162.196 118.654 162.133 118.996C162.105 119.137 162.08 119.257 162.078 119.26C162.074 119.262 162.023 119.226 161.966 119.175L161.863 119.085L161.906 118.53C161.951 117.933 161.947 117.869 161.861 117.809C161.837 117.792 161.776 117.78 161.717 117.78C161.51 117.78 161.457 117.896 161.406 118.462L161.392 118.592L161.253 118.47L161.114 118.347L161.12 117.921C161.126 117.498 161.124 117.496 161.079 117.442C161.043 117.404 161.008 117.388 160.94 117.38C160.757 117.359 160.681 117.431 160.632 117.666L160.602 117.815L160.363 117.595L160.122 117.375L159.997 117.375C159.891 117.375 159.862 117.382 159.813 117.423C159.746 117.477 159.691 117.581 159.691 117.651C159.691 117.715 159.768 117.821 159.962 118.03C160.05 118.124 160.122 118.207 160.122 118.213C160.122 118.219 160.085 118.225 160.04 118.225C159.924 118.227 159.799 118.287 159.762 118.358C159.695 118.482 159.74 118.671 159.844 118.71C159.879 118.723 160.009 118.723 160.256 118.708L160.614 118.687L160.746 118.801C160.979 119.004 160.977 118.99 160.755 119.015C160.328 119.067 160.22 119.121 160.22 119.28C160.22 119.388 160.303 119.533 160.373 119.552C160.399 119.558 160.642 119.537 160.912 119.506L161.406 119.448L161.504 119.541C161.557 119.593 161.594 119.639 161.588 119.647C161.58 119.653 161.476 119.674 161.353 119.695C160.849 119.78 160.646 119.852 160.599 119.96C160.557 120.059 160.579 120.132 160.706 120.314C160.769 120.402 160.906 120.6 161.01 120.75L161.2 121.027L161.049 121.025L160.896 121.025L160.499 120.573C160.068 120.08 160.052 120.068 159.897 120.118C159.809 120.147 159.77 120.219 159.77 120.354C159.77 120.457 159.772 120.46 159.997 120.737L160.222 121.017L160.036 121.023L159.85 121.029L159.531 120.708C159.246 120.424 159.203 120.389 159.146 120.389C159.015 120.389 158.892 120.493 158.874 120.615C158.864 120.687 158.872 120.7 159.005 120.859L159.145 121.027L158.768 121.027C158.416 121.027 158.388 121.029 158.316 121.069C158.218 121.123 158.182 121.191 158.182 121.316C158.182 121.429 158.218 121.508 158.292 121.566C158.341 121.602 158.37 121.606 158.664 121.606C158.841 121.606 158.986 121.612 158.986 121.618C158.986 121.624 158.958 121.666 158.925 121.713C158.868 121.79 158.864 121.807 158.872 121.917C158.884 122.068 158.941 122.128 159.07 122.128C159.15 122.128 159.162 122.12 159.417 121.867L159.681 121.606L159.891 121.606C160.009 121.606 160.103 121.612 160.103 121.618C160.103 121.626 160.06 121.687 160.007 121.759C159.84 121.985 159.77 122.097 159.77 122.143C159.77 122.209 159.85 122.317 159.923 122.352C160.068 122.42 160.164 122.348 160.601 121.832L160.793 121.606L160.92 121.606C161.024 121.606 161.045 121.612 161.036 121.635C161.03 121.651 160.932 121.809 160.816 121.987C160.7 122.165 160.599 122.335 160.589 122.362C160.559 122.445 160.612 122.543 160.712 122.594C160.822 122.648 161.161 122.731 161.498 122.785L161.766 122.829L161.674 122.934L161.582 123.04L161.386 123.028C161.279 123.021 161.024 123.001 160.818 122.986C160.41 122.953 160.336 122.959 160.267 123.027C160.199 123.094 160.199 123.268 160.267 123.336C160.336 123.403 160.55 123.457 160.971 123.51L161.063 123.521L160.945 123.651L160.828 123.78L160.371 123.772L159.913 123.767L159.862 123.828C159.821 123.875 159.809 123.91 159.809 123.979C159.809 124.163 159.923 124.254 160.15 124.254C160.22 124.254 160.279 124.259 160.279 124.267C160.279 124.277 160.179 124.387 160.06 124.514C159.772 124.822 159.691 124.922 159.691 124.984C159.691 125.059 159.838 125.293 159.893 125.301C160.026 125.324 160.207 125.216 160.469 124.957L160.65 124.781L160.669 124.876C160.71 125.059 160.783 125.142 160.904 125.142C160.985 125.142 161.137 125.052 161.153 124.996C161.159 124.974 161.157 124.81 161.147 124.634L161.132 124.312L161.275 124.157C161.355 124.072 161.427 124.002 161.437 124.002C161.447 124.002 161.455 124.039 161.455 124.084C161.455 124.292 161.518 124.532 161.592 124.605C161.667 124.677 161.808 124.683 161.908 124.615L161.974 124.57L161.97 124.31C161.968 124.167 161.953 123.939 161.937 123.799L161.91 123.548L162.009 123.434L162.109 123.32L162.154 123.579C162.243 124.082 162.311 124.248 162.444 124.292C162.484 124.306 162.539 124.31 162.566 124.302C162.593 124.296 162.768 124.188 162.952 124.064C163.136 123.939 163.32 123.817 163.362 123.792L163.434 123.747L163.434 123.912L163.434 124.074L163.358 124.124C163.13 124.273 162.597 124.754 162.58 124.827C162.548 124.949 162.686 125.142 162.803 125.142C162.842 125.142 162.932 125.086 163.109 124.953C163.246 124.851 163.375 124.754 163.397 124.739C163.432 124.713 163.434 124.719 163.434 124.893L163.434 125.075L163.15 125.355L162.866 125.635L162.866 125.755C162.866 125.9 162.913 125.967 163.026 125.987C163.134 126.002 163.185 125.983 163.311 125.875L163.424 125.776L163.434 126.199C163.444 126.646 163.45 126.671 163.544 126.744C163.583 126.775 163.624 126.785 163.712 126.785C163.85 126.785 163.93 126.748 163.983 126.663C164.018 126.607 164.022 126.565 164.022 126.209L164.022 125.817L164.11 125.877C164.288 125.998 164.463 126.022 164.541 125.935C164.563 125.91 164.58 125.853 164.586 125.788L164.596 125.682L164.308 125.397L164.022 125.111L164.022 124.905L164.022 124.696L164.292 124.901C164.577 125.113 164.618 125.131 164.724 125.077C164.804 125.034 164.861 124.967 164.874 124.889C164.892 124.798 164.87 124.775 164.386 124.35L164.024 124.031L164.024 123.91C164.022 123.844 164.028 123.79 164.034 123.79C164.04 123.79 164.198 123.894 164.388 124.024C164.577 124.151 164.763 124.269 164.8 124.286C164.927 124.339 165.033 124.29 165.106 124.147C165.141 124.078 165.225 123.722 165.258 123.51C165.292 123.287 165.294 123.285 165.407 123.39L165.503 123.479L165.445 123.969C165.413 124.24 165.394 124.482 165.4 124.507C165.417 124.576 165.566 124.659 165.67 124.659C165.819 124.657 165.866 124.586 165.915 124.298C165.931 124.194 165.95 124.074 165.958 124.033L165.972 123.958L166.125 124.101L166.279 124.244L166.258 124.578C166.228 124.997 166.24 125.063 166.348 125.119C166.409 125.152 166.542 125.148 166.611 125.111C166.683 125.075 166.744 124.951 166.746 124.837C166.746 124.793 166.752 124.756 166.758 124.756C166.763 124.756 166.867 124.847 166.987 124.959C167.294 125.243 167.377 125.301 167.459 125.301C167.583 125.301 167.765 125.162 167.765 125.069C167.765 124.949 167.614 124.731 167.312 124.418C167.238 124.34 167.177 124.273 167.177 124.265C167.177 124.259 167.222 124.254 167.279 124.254C167.418 124.254 167.536 124.196 167.579 124.105C167.628 124.006 167.608 123.873 167.539 123.815C167.49 123.772 167.479 123.77 167.052 123.77L166.615 123.77L166.495 123.639L166.375 123.506L166.624 123.484C167.061 123.446 167.197 123.378 167.197 123.195C167.197 123.057 167.134 122.971 167.03 122.963C166.955 122.957 166.189 123.005 165.997 123.028C165.905 123.04 165.901 123.038 165.791 122.934C165.684 122.831 165.68 122.826 165.727 122.816C165.754 122.812 165.935 122.775 166.129 122.739C166.544 122.659 166.664 122.625 166.734 122.571C166.781 122.534 166.785 122.518 166.785 122.397L166.785 122.261L166.571 121.954C166.454 121.786 166.352 121.639 166.346 121.628C166.336 121.612 166.379 121.606 166.485 121.606L166.638 121.606L166.728 121.726C166.777 121.794 166.916 121.964 167.04 122.103C167.283 122.385 167.32 122.406 167.473 122.362C167.567 122.333 167.608 122.263 167.608 122.13C167.608 122.029 167.61 122.031 167.379 121.742C167.332 121.684 167.294 121.629 167.294 121.62C167.294 121.612 167.394 121.606 167.518 121.606L167.739 121.606L167.79 121.682C167.818 121.722 167.924 121.84 168.023 121.943C168.194 122.116 168.212 122.128 168.282 122.128C168.423 122.128 168.549 122.002 168.549 121.861C168.549 121.825 168.523 121.771 168.48 121.715C168.443 121.664 168.411 121.622 168.411 121.616C168.411 121.61 168.564 121.606 168.75 121.606C169.082 121.606 169.089 121.604 169.162 121.556C169.248 121.5 169.274 121.446 169.274 121.324C169.274 121.226 169.242 121.154 169.166 121.085C169.115 121.036 169.109 121.036 168.682 121.027L168.249 121.017L168.368 120.887C168.502 120.743 168.519 120.7 168.502 120.573C168.482 120.455 168.404 120.389 168.276 120.389L168.184 120.389L167.939 120.634C167.804 120.772 167.669 120.915 167.639 120.953L167.585 121.027L167.391 121.027C167.283 121.027 167.197 121.023 167.197 121.017C167.197 121.013 167.259 120.932 167.336 120.839C167.518 120.615 167.624 120.437 167.639 120.329C167.649 120.254 167.645 120.234 167.6 120.182C167.534 120.105 167.408 120.08 167.318 120.126C167.287 120.142 167.089 120.352 166.883 120.592L166.505 121.027L166.36 121.027C166.279 121.027 166.217 121.021 166.221 121.011C166.225 121.003 166.321 120.86 166.438 120.694C166.838 120.118 166.871 120.047 166.787 119.941C166.714 119.85 166.452 119.767 165.954 119.672L165.84 119.651L165.94 119.55L166.04 119.45L166.477 119.502C167.075 119.575 167.044 119.577 167.128 119.465C167.183 119.394 167.197 119.357 167.197 119.284C167.197 119.208 167.189 119.187 167.138 119.146C167.081 119.098 166.916 119.052 166.716 119.027C166.55 119.005 166.528 119 166.544 118.971C166.552 118.955 166.616 118.886 166.685 118.814L166.81 118.687L167.132 118.708C167.492 118.731 167.541 118.721 167.639 118.605C167.681 118.557 167.688 118.532 167.681 118.47C167.665 118.352 167.579 118.281 167.422 118.254C167.379 118.246 167.338 118.234 167.328 118.231C167.32 118.225 167.387 118.142 167.477 118.045C167.682 117.823 167.765 117.711 167.765 117.651C167.765 117.587 167.698 117.463 167.635 117.415C167.594 117.384 167.555 117.375 167.457 117.375L167.332 117.375L167.079 117.608C166.94 117.736 166.82 117.848 166.814 117.86C166.789 117.898 166.765 117.873 166.765 117.807C166.765 117.684 166.705 117.467 166.656 117.419C166.591 117.355 166.471 117.359 166.362 117.427C166.246 117.5 166.236 117.531 166.256 117.744C166.266 117.844 166.276 118.028 166.276 118.153L166.276 118.381L166.154 118.513C166.085 118.586 166.025 118.646 166.019 118.648C166.011 118.65 166.001 118.565 165.993 118.461C165.966 118.091 165.909 117.867 165.827 117.805C165.809 117.792 165.754 117.78 165.703 117.78C165.629 117.78 165.596 117.792 165.527 117.844C165.447 117.906 165.443 117.914 165.445 118.005C165.447 118.09 165.517 118.849 165.541 119.021C165.55 119.085 165.541 119.102 165.451 119.201C165.394 119.26 165.343 119.301 165.335 119.293C165.327 119.286 165.302 119.17 165.276 119.036C165.217 118.718 165.127 118.354 165.088 118.277C164.98 118.07 164.888 118.093 164.298 118.484L164.022 118.667L164.022 118.546L164.022 118.422L164.351 118.142C164.531 117.987 164.724 117.817 164.776 117.763C164.867 117.672 164.874 117.655 164.872 117.576C164.87 117.46 164.806 117.394 164.682 117.38C164.633 117.375 164.573 117.375 164.547 117.38C164.522 117.388 164.396 117.471 164.267 117.566L164.032 117.74L164.026 117.533L164.02 117.328L164.306 117.046C164.584 116.772 164.59 116.764 164.59 116.683C164.59 116.53 164.508 116.447 164.355 116.447C164.3 116.447 164.153 116.534 164.091 116.602C164.071 116.623 164.047 116.64 164.038 116.64C164.03 116.64 164.022 116.509 164.022 116.35C164.022 116.037 164.012 115.995 163.916 115.908C163.842 115.84 163.667 115.831 163.569 115.889ZM162.891 118.944C162.991 119.009 163.154 119.121 163.254 119.195L163.434 119.326L163.434 119.448L163.434 119.572L163.101 119.757C162.917 119.861 162.76 119.943 162.752 119.943C162.744 119.941 162.689 119.887 162.629 119.821L162.519 119.703L162.544 119.529C162.591 119.216 162.674 118.824 162.693 118.824C162.703 118.824 162.791 118.878 162.891 118.944ZM164.782 119.127C164.816 119.295 164.853 119.504 164.867 119.593L164.892 119.753L164.81 119.834L164.727 119.916L164.479 119.792C164.341 119.726 164.183 119.641 164.126 119.604L164.022 119.539L164.022 119.415C164.022 119.293 164.024 119.291 164.106 119.226C164.198 119.15 164.69 118.824 164.71 118.824C164.718 118.824 164.749 118.961 164.782 119.127ZM164.251 120.333C164.53 120.484 164.79 120.625 164.829 120.648L164.904 120.688L164.904 121.332L164.904 121.973L164.769 122.06C164.535 122.209 163.81 122.611 163.775 122.611C163.703 122.611 163.011 122.234 162.754 122.055L162.631 121.97L162.631 121.336L162.631 120.702L162.96 120.509C163.238 120.345 163.728 120.064 163.742 120.06C163.744 120.06 163.973 120.184 164.251 120.333ZM162.147 120.174L162.229 120.25L162.135 120.335L162.043 120.42L162.043 120.723L162.043 121.027L161.91 121.027C161.78 121.027 161.776 121.025 161.739 120.963C161.719 120.93 161.602 120.75 161.48 120.565C161.357 120.381 161.261 120.227 161.265 120.221C161.279 120.207 161.908 120.103 161.99 120.101C162.051 120.099 162.078 120.113 162.147 120.174ZM165.782 120.157C165.982 120.19 166.148 120.219 166.154 120.223C166.162 120.232 165.752 120.826 165.654 120.944C165.609 121 165.572 121.027 165.541 121.027C165.496 121.027 165.496 121.023 165.486 120.77C165.476 120.464 165.454 120.391 165.353 120.29L165.274 120.213L165.319 120.157C165.345 120.126 165.376 120.101 165.39 120.101C165.405 120.099 165.582 120.126 165.782 120.157ZM162.043 121.921C162.043 122.196 162.049 122.246 162.08 122.31L162.119 122.383L162.027 122.371C161.894 122.352 161.271 122.24 161.261 122.232C161.257 122.23 161.349 122.087 161.465 121.917L161.676 121.606L161.859 121.606L162.043 121.606L162.043 121.921ZM165.807 121.736C165.868 121.809 165.97 121.946 166.036 122.045L166.158 122.223L166.083 122.242C166.025 122.257 165.65 122.331 165.429 122.37C165.398 122.373 165.374 122.371 165.374 122.366C165.374 122.358 165.398 122.327 165.429 122.296C165.482 122.242 165.482 122.24 165.488 121.923L165.494 121.606L165.597 121.606L165.699 121.606L165.807 121.736ZM162.921 122.841C163.015 122.891 163.168 122.974 163.264 123.025C163.358 123.075 163.434 123.123 163.434 123.131C163.434 123.148 162.689 123.643 162.682 123.631C162.68 123.629 162.646 123.465 162.607 123.268L162.535 122.911L162.627 122.829C162.678 122.785 162.725 122.748 162.735 122.746C162.742 122.746 162.827 122.789 162.921 122.841ZM164.837 122.947C164.823 123.085 164.733 123.616 164.724 123.627C164.72 123.631 164.602 123.56 164.461 123.469C164.322 123.378 164.167 123.282 164.116 123.253C164.063 123.224 164.022 123.191 164.022 123.179C164.022 123.166 164.126 123.1 164.253 123.028C164.379 122.959 164.539 122.868 164.61 122.826L164.737 122.75L164.794 122.791C164.847 122.828 164.849 122.833 164.837 122.947Z"   fill="#9EEFFF" >
</path>
<path d="M163.64 120.149C163.406 120.271 163.02 120.491 162.875 120.586C162.644 120.739 162.65 120.717 162.65 121.345C162.65 121.933 162.652 121.939 162.797 122.051C162.963 122.182 163.677 122.572 163.747 122.572C163.824 122.572 164.553 122.188 164.741 122.049C164.815 121.995 164.849 121.952 164.864 121.9C164.878 121.854 164.884 121.647 164.88 121.299L164.874 120.772L164.784 120.69C164.735 120.648 164.602 120.557 164.49 120.491C164.272 120.366 163.822 120.126 163.769 120.109C163.751 120.103 163.692 120.122 163.64 120.149Z"   fill="#D9F9FF" >
</path>
<path d="M161.43 104.232C161.346 104.347 161.349 104.386 161.488 104.708C161.556 104.866 161.606 104.996 161.601 104.998C161.595 105.001 161.529 104.984 161.454 104.963C161.276 104.912 161.233 104.915 161.172 104.976C161.091 105.056 161.068 105.167 161.11 105.263L161.146 105.346L161.518 105.495L161.893 105.644L161.962 105.817L162.03 105.99L161.701 105.909C161.415 105.838 161.365 105.832 161.302 105.858C161.264 105.874 161.216 105.905 161.195 105.926C161.129 106 161.15 106.172 161.236 106.234C161.257 106.248 161.506 106.342 161.792 106.438L162.31 106.616L162.367 106.748C162.411 106.851 162.417 106.88 162.397 106.878C162.381 106.876 162.152 106.833 161.888 106.784C161.56 106.724 161.393 106.702 161.359 106.716C161.29 106.745 161.223 106.842 161.217 106.92C161.212 107.002 161.262 107.307 161.34 107.646C161.37 107.786 161.394 107.906 161.394 107.91C161.391 107.914 161.33 107.899 161.257 107.875L161.126 107.832L160.946 107.304C160.751 106.737 160.722 106.68 160.619 106.658C160.59 106.651 160.53 106.664 160.475 106.687C160.284 106.767 160.281 106.894 160.459 107.435L160.498 107.559L160.321 107.501L160.144 107.44L159.981 107.047C159.819 106.655 159.816 106.654 159.753 106.622C159.706 106.6 159.667 106.599 159.601 106.618C159.425 106.669 159.383 106.764 159.431 107L159.463 107.148L159.155 107.038L158.846 106.928L158.731 106.976C158.633 107.017 158.609 107.035 158.58 107.091C158.541 107.167 158.531 107.284 158.559 107.348C158.584 107.407 158.697 107.475 158.958 107.593C159.077 107.646 159.176 107.694 159.179 107.7C159.181 107.705 159.149 107.725 159.108 107.742C159.002 107.788 158.91 107.892 158.904 107.972C158.892 108.111 159.008 108.268 159.119 108.264C159.157 108.263 159.276 108.213 159.497 108.104L159.819 107.946L159.985 108C160.28 108.097 160.273 108.086 160.079 108.194C159.707 108.407 159.629 108.498 159.692 108.644C159.735 108.743 159.868 108.845 159.94 108.836C159.966 108.831 160.181 108.718 160.418 108.585L160.85 108.342L160.977 108.389C161.046 108.417 161.099 108.445 161.096 108.455C161.091 108.463 161.004 108.523 160.899 108.59C160.469 108.862 160.31 109.006 160.309 109.124C160.311 109.231 160.359 109.29 160.549 109.408C160.642 109.466 160.846 109.594 161.001 109.693L161.286 109.874L161.146 109.931L161.006 109.989L160.46 109.726C159.868 109.439 159.849 109.434 159.726 109.54C159.657 109.601 159.649 109.682 159.703 109.806C159.743 109.901 159.746 109.903 160.063 110.071L160.382 110.242L160.213 110.319L160.044 110.396L159.623 110.224C159.249 110.072 159.195 110.056 159.143 110.078C159.022 110.129 158.95 110.273 158.982 110.391C159.001 110.461 159.014 110.47 159.199 110.565L159.394 110.666L159.047 110.811C158.723 110.947 158.698 110.959 158.647 111.024C158.579 111.112 158.573 111.188 158.623 111.303C158.667 111.407 158.731 111.466 158.823 111.491C158.882 111.506 158.911 111.498 159.181 111.385C159.344 111.317 159.48 111.266 159.482 111.271C159.484 111.277 159.476 111.326 159.464 111.382C159.442 111.475 159.445 111.493 159.496 111.591C159.567 111.725 159.643 111.758 159.762 111.709C159.836 111.678 159.843 111.666 159.978 111.335L160.118 110.993L160.311 110.912C160.419 110.867 160.508 110.836 160.51 110.841C160.513 110.848 160.498 110.922 160.478 111.008C160.414 111.28 160.393 111.411 160.412 111.453C160.438 111.514 160.555 111.582 160.635 111.587C160.795 111.593 160.855 111.49 161.053 110.847L161.14 110.565L161.258 110.516C161.353 110.476 161.375 110.473 161.376 110.498C161.376 110.514 161.349 110.698 161.313 110.906C161.277 111.114 161.251 111.31 161.252 111.339C161.258 111.427 161.346 111.497 161.458 111.505C161.58 111.512 161.925 111.458 162.257 111.378L162.522 111.316L162.478 111.447L162.436 111.58L162.251 111.645C162.148 111.68 161.906 111.76 161.711 111.825C161.322 111.952 161.256 111.986 161.22 112.074C161.184 112.163 161.253 112.323 161.342 112.359C161.432 112.395 161.65 112.362 162.059 112.248L162.148 112.223L162.091 112.388L162.034 112.552L161.611 112.721L161.187 112.892L161.164 112.969C161.145 113.027 161.148 113.064 161.175 113.128C161.248 113.297 161.389 113.337 161.598 113.249C161.663 113.222 161.719 113.205 161.722 113.212C161.726 113.221 161.678 113.361 161.618 113.524C161.475 113.918 161.441 114.041 161.465 114.098C161.495 114.168 161.723 114.326 161.777 114.312C161.909 114.282 162.032 114.113 162.171 113.774L162.267 113.542L162.323 113.622C162.433 113.775 162.533 113.824 162.645 113.777C162.719 113.746 162.823 113.603 162.816 113.546C162.813 113.524 162.746 113.374 162.667 113.215L162.525 112.924L162.595 112.727C162.635 112.618 162.675 112.526 162.684 112.522C162.693 112.518 162.714 112.549 162.732 112.59C162.815 112.782 162.967 112.978 163.065 113.017C163.162 113.055 163.294 113.006 163.359 112.905L163.403 112.838L163.296 112.6C163.237 112.469 163.133 112.265 163.063 112.143L162.938 111.922L162.985 111.779L163.032 111.635L163.176 111.856C163.456 112.285 163.585 112.411 163.726 112.401C163.767 112.398 163.819 112.381 163.841 112.363C163.864 112.347 163.982 112.18 164.102 111.995C164.222 111.809 164.343 111.626 164.371 111.587L164.421 111.518L164.486 111.669L164.55 111.819L164.5 111.894C164.349 112.119 164.049 112.767 164.062 112.841C164.082 112.966 164.284 113.091 164.393 113.045C164.429 113.03 164.49 112.944 164.599 112.753C164.685 112.606 164.765 112.467 164.779 112.445C164.802 112.408 164.806 112.413 164.875 112.573L164.947 112.74L164.796 113.107L164.646 113.475L164.693 113.585C164.751 113.718 164.821 113.763 164.933 113.737C165.038 113.709 165.078 113.672 165.15 113.524L165.216 113.39L165.392 113.775C165.578 114.182 165.594 114.203 165.709 114.235C165.758 114.248 165.799 114.241 165.881 114.207C166.007 114.154 166.066 114.089 166.081 113.991C166.092 113.926 166.078 113.885 165.937 113.558L165.782 113.197L165.887 113.218C166.099 113.261 166.269 113.215 166.307 113.105C166.317 113.074 166.311 113.015 166.29 112.953L166.257 112.851L165.879 112.7L165.502 112.547L165.42 112.357L165.338 112.165L165.668 112.249C166.014 112.336 166.058 112.336 166.134 112.245C166.191 112.175 166.217 112.091 166.199 112.015C166.179 111.924 166.15 111.911 165.536 111.706L165.076 111.552L165.028 111.44C165 111.381 164.984 111.329 164.989 111.326C164.995 111.324 165.182 111.359 165.409 111.405C165.632 111.45 165.85 111.487 165.891 111.488C166.029 111.487 166.108 111.402 166.118 111.242C166.123 111.165 166.059 110.805 166.006 110.597C165.948 110.379 165.949 110.377 166.095 110.429L166.219 110.474L166.359 110.948C166.438 111.209 166.515 111.439 166.531 111.46C166.575 111.517 166.745 111.536 166.84 111.496C166.977 111.437 166.991 111.353 166.922 111.069C166.896 110.967 166.866 110.85 166.857 110.809L166.84 110.734L167.037 110.807L167.237 110.879L167.349 111.195C167.488 111.593 167.525 111.648 167.647 111.659C167.716 111.665 167.837 111.61 167.885 111.55C167.937 111.489 167.944 111.351 167.901 111.246C167.883 111.205 167.874 111.169 167.88 111.166C167.885 111.164 168.017 111.208 168.171 111.265C168.567 111.408 168.666 111.429 168.741 111.398C168.855 111.35 168.968 111.152 168.931 111.067C168.883 110.956 168.658 110.813 168.256 110.641C168.157 110.599 168.074 110.56 168.071 110.553C168.069 110.548 168.108 110.525 168.16 110.503C168.288 110.45 168.374 110.351 168.377 110.251C168.383 110.141 168.312 110.026 168.226 109.999C168.164 109.979 168.153 109.981 167.76 110.146L167.357 110.314L167.195 110.239L167.032 110.163L167.253 110.047C167.64 109.843 167.738 109.729 167.665 109.56C167.61 109.434 167.518 109.378 167.42 109.411C167.349 109.434 166.663 109.774 166.495 109.869C166.415 109.915 166.41 109.915 166.268 109.861C166.128 109.808 166.122 109.805 166.162 109.778C166.186 109.764 166.337 109.66 166.501 109.552C166.852 109.319 166.948 109.241 166.992 109.164C167.021 109.112 167.018 109.096 166.97 108.984L166.916 108.86L166.598 108.659C166.423 108.55 166.271 108.454 166.261 108.445C166.246 108.435 166.283 108.413 166.381 108.372L166.521 108.313L166.652 108.389C166.724 108.432 166.919 108.535 167.088 108.616C167.423 108.782 167.466 108.787 167.589 108.687C167.664 108.624 167.674 108.544 167.622 108.422C167.582 108.329 167.584 108.33 167.257 108.152C167.19 108.117 167.135 108.082 167.131 108.073C167.128 108.066 167.217 108.022 167.331 107.974L167.535 107.889L167.612 107.939C167.653 107.965 167.797 108.033 167.93 108.089C168.156 108.183 168.176 108.187 168.241 108.16C168.371 108.106 168.437 107.942 168.381 107.812C168.366 107.778 168.322 107.738 168.26 107.703C168.206 107.671 168.16 107.644 168.158 107.639C168.155 107.634 168.294 107.571 168.466 107.499C168.771 107.372 168.777 107.367 168.825 107.295C168.882 107.21 168.884 107.15 168.836 107.038C168.796 106.948 168.739 106.894 168.641 106.859C168.575 106.834 168.57 106.837 168.173 106.992L167.77 107.15L167.829 106.985C167.894 106.8 167.894 106.754 167.827 106.644C167.762 106.543 167.664 106.512 167.547 106.562L167.462 106.597L167.334 106.917C167.264 107.096 167.196 107.279 167.184 107.326L167.163 107.415L166.984 107.49C166.885 107.531 166.804 107.561 166.802 107.556C166.8 107.552 166.826 107.453 166.859 107.338C166.938 107.062 166.965 106.857 166.937 106.752C166.916 106.679 166.905 106.662 166.842 106.632C166.751 106.586 166.625 106.611 166.561 106.689C166.538 106.715 166.439 106.985 166.345 107.285L166.169 107.831L166.035 107.887C165.961 107.918 165.901 107.937 165.901 107.926C165.902 107.917 165.933 107.749 165.976 107.551C166.116 106.867 166.118 106.788 165.998 106.723C165.895 106.667 165.621 106.692 165.125 106.796L165.012 106.82L165.064 106.689L165.116 106.558L165.539 106.438C166.119 106.275 166.09 106.289 166.124 106.154C166.146 106.067 166.144 106.028 166.115 105.96C166.085 105.891 166.069 105.874 166.006 105.856C165.935 105.834 165.765 105.855 165.571 105.908C165.409 105.953 165.387 105.956 165.39 105.923C165.391 105.906 165.423 105.817 165.458 105.725L165.523 105.559L165.827 105.455C166.168 105.337 166.209 105.31 166.254 105.165C166.272 105.105 166.27 105.079 166.238 105.025C166.177 104.922 166.069 104.89 165.914 104.925C165.871 104.935 165.829 104.94 165.818 104.94C165.809 104.938 165.837 104.836 165.882 104.712C165.983 104.428 166.014 104.293 165.991 104.238C165.965 104.179 165.855 104.091 165.778 104.071C165.728 104.058 165.688 104.065 165.598 104.102L165.483 104.151L165.343 104.463C165.265 104.634 165.199 104.783 165.199 104.796C165.19 104.842 165.159 104.828 165.133 104.767C165.084 104.653 164.942 104.478 164.878 104.452C164.793 104.418 164.685 104.468 164.61 104.572C164.533 104.684 164.536 104.717 164.639 104.905C164.687 104.993 164.769 105.159 164.819 105.274L164.909 105.484L164.85 105.652C164.816 105.746 164.783 105.824 164.779 105.829C164.772 105.833 164.73 105.759 164.681 105.666C164.509 105.337 164.368 105.152 164.268 105.127C164.246 105.121 164.191 105.132 164.144 105.151C164.076 105.18 164.05 105.204 164.007 105.278C163.958 105.366 163.957 105.375 163.995 105.457C164.031 105.535 164.397 106.207 164.486 106.356C164.521 106.411 164.519 106.431 164.475 106.556C164.446 106.633 164.415 106.69 164.405 106.686C164.395 106.682 164.325 106.585 164.249 106.472C164.068 106.201 163.842 105.902 163.775 105.846C163.594 105.697 163.518 105.754 163.13 106.34L162.948 106.615L162.9 106.503L162.851 106.39L163.043 106.005C163.148 105.793 163.257 105.563 163.284 105.492C163.331 105.374 163.332 105.355 163.298 105.283C163.251 105.177 163.165 105.141 163.046 105.177C162.999 105.19 162.943 105.213 162.922 105.229C162.901 105.246 162.819 105.37 162.737 105.507L162.59 105.758L162.502 105.57L162.416 105.384L162.567 105.014C162.715 104.654 162.717 104.645 162.685 104.57C162.624 104.429 162.516 104.385 162.375 104.443C162.324 104.465 162.224 104.601 162.193 104.688C162.183 104.715 162.168 104.74 162.159 104.744C162.152 104.747 162.093 104.629 162.03 104.483C161.906 104.195 161.88 104.159 161.757 104.116C161.662 104.083 161.497 104.141 161.43 104.232ZM162.017 107.305C162.135 107.327 162.329 107.368 162.45 107.397L162.668 107.448L162.717 107.561L162.766 107.674L162.532 107.973C162.404 108.14 162.292 108.276 162.285 108.279C162.277 108.28 162.205 108.251 162.123 108.214L161.975 108.148L161.93 107.978C161.849 107.672 161.769 107.279 161.787 107.271C161.796 107.268 161.899 107.283 162.017 107.305ZM163.83 106.746C163.928 106.888 164.045 107.066 164.093 107.142L164.18 107.28L164.136 107.386L164.092 107.493L163.814 107.475C163.662 107.467 163.482 107.45 163.415 107.438L163.294 107.418L163.245 107.304C163.196 107.192 163.197 107.189 163.247 107.097C163.302 106.992 163.625 106.502 163.643 106.495C163.651 106.492 163.734 106.606 163.83 106.746ZM163.819 108.06C164.135 108.092 164.431 108.121 164.476 108.128L164.561 108.136L164.816 108.729L165.07 109.319L164.98 109.451C164.825 109.678 164.317 110.327 164.284 110.341C164.217 110.369 163.431 110.288 163.124 110.222L162.976 110.191L162.725 109.608L162.474 109.024L162.7 108.72C162.891 108.461 163.231 108.015 163.242 108.006C163.244 108.005 163.504 108.031 163.819 108.06ZM161.819 108.725L161.925 108.763L161.872 108.877L161.821 108.991L161.941 109.27L162.062 109.55L161.939 109.601C161.82 109.651 161.815 109.651 161.757 109.608C161.726 109.585 161.546 109.465 161.361 109.341C161.174 109.22 161.025 109.114 161.026 109.108C161.033 109.09 161.571 108.752 161.646 108.718C161.701 108.693 161.732 108.695 161.819 108.725ZM165.159 107.309C165.356 107.262 165.52 107.225 165.527 107.226C165.538 107.232 165.396 107.936 165.353 108.082C165.334 108.151 165.31 108.19 165.281 108.202C165.24 108.22 165.238 108.216 165.129 107.987C164.999 107.71 164.95 107.65 164.816 107.597L164.714 107.556L164.733 107.487C164.744 107.449 164.763 107.414 164.776 107.408C164.789 107.401 164.962 107.358 165.159 107.309ZM162.416 110.373C162.525 110.626 162.55 110.67 162.604 110.716L162.669 110.769L162.58 110.794C162.45 110.827 161.832 110.964 161.82 110.961C161.815 110.96 161.843 110.793 161.882 110.592L161.954 110.224L162.122 110.154L162.291 110.083L162.416 110.373ZM165.808 108.752C165.893 108.797 166.041 108.884 166.141 108.949L166.324 109.066L166.263 109.112C166.215 109.149 165.899 109.361 165.711 109.481C165.683 109.497 165.661 109.504 165.659 109.499C165.656 109.492 165.665 109.454 165.682 109.414C165.709 109.344 165.708 109.342 165.588 109.048L165.468 108.754L165.563 108.714L165.657 108.675L165.808 108.752ZM163.589 110.882C163.695 110.892 163.869 110.909 163.977 110.919C164.084 110.929 164.173 110.944 164.176 110.951C164.183 110.967 163.694 111.709 163.682 111.701C163.679 111.7 163.584 111.562 163.469 111.396L163.261 111.094L163.314 110.984C163.343 110.924 163.372 110.872 163.38 110.866C163.387 110.863 163.481 110.87 163.589 110.882ZM165.395 110.241C165.437 110.373 165.564 110.897 165.56 110.911C165.558 110.916 165.421 110.896 165.255 110.866C165.091 110.836 164.911 110.807 164.852 110.8C164.792 110.794 164.741 110.779 164.737 110.769C164.731 110.756 164.801 110.656 164.89 110.541C164.978 110.429 165.089 110.283 165.138 110.217L165.225 110.098L165.293 110.114C165.357 110.127 165.361 110.132 165.395 110.241Z"   fill="#9EEFFF" >
</path>
<path d="M163.183 108.127C163.017 108.329 162.749 108.68 162.653 108.823C162.501 109.053 162.498 109.031 162.747 109.609C162.979 110.15 162.984 110.155 163.161 110.202C163.367 110.259 164.178 110.343 164.243 110.316C164.313 110.287 164.832 109.652 164.95 109.451C164.997 109.373 165.011 109.321 165.005 109.267C164.999 109.219 164.922 109.026 164.781 108.708L164.566 108.224L164.451 108.184C164.389 108.164 164.231 108.132 164.102 108.114C163.852 108.083 163.342 108.036 163.286 108.04C163.268 108.041 163.221 108.082 163.183 108.127Z"   fill="#D9F9FF" >
</path>
<path d="M158.445 347.803L156.778 348.779L160.908 348.779L163.372 347.803L158.445 347.803ZM163.372 342.798L158.445 342.798L158.445 347.803L163.372 347.803L163.372 342.798ZM158.445 342.798L156.778 344.123L156.778 348.779L158.445 347.803L158.445 342.798Z" stroke="rgba(235, 252, 255, 1)" stroke-width="1"    fill-rule="evenodd"  fill="#B3FFF6" opacity="0.8">
</path>
<path d="M157.218 349.222L154.691 350.691L160.954 350.691L164.691 349.222L157.218 349.222ZM164.691 341.691L157.218 341.691L157.218 349.222L164.691 349.222L164.691 341.691ZM157.218 341.691L154.691 343.684L154.691 350.691L157.218 349.222L157.218 341.691Z" stroke="rgba(240, 253, 255, 1)" stroke-width="1"    fill-rule="evenodd"  fill="#ABFFF5" opacity="0.5">
</path>
<rect  transform="matrix(-0.7963165044784546, 0.60481196641922, -0.5988084077835083, -0.8009278774261475, 160.95465087890625, 346.8286437988281)" x="0" y="0" width="0.6612607537724265" height="1.9879540449256297" rx="20"    fill="#FFFFFF" opacity="0.4">
</rect>
<rect  transform="matrix(-0.7521638870239258, 0.6590153574943542, -0.6531037092208862, -0.7572497129440308, 160.73492431640625, 348.4194641113281)" x="0" y="0" width="0.8820968319357375" height="3.7531719038091187" rx="20"    fill="#FFFFFF" opacity="0.5">
</rect>
<path d="M148.445 345.803L146.778 346.779L150.908 346.779L153.372 345.803L148.445 345.803ZM153.372 340.798L148.445 340.798L148.445 345.803L153.372 345.803L153.372 340.798ZM148.445 340.798L146.778 342.123L146.778 346.779L148.445 345.803L148.445 340.798Z" stroke="rgba(235, 252, 255, 1)" stroke-width="1"    fill-rule="evenodd"  fill="#B3FFF6" opacity="0.8">
</path>
<path d="M148.218 348.222L145.691 349.691L151.954 349.691L155.691 348.222L148.218 348.222ZM155.691 340.691L148.218 340.691L148.218 348.222L155.691 348.222L155.691 340.691ZM148.218 340.691L145.691 342.684L145.691 349.691L148.218 348.222L148.218 340.691Z" stroke="rgba(240, 253, 255, 1)" stroke-width="1"    fill-rule="evenodd"  fill="#ABFFF5" opacity="0.5">
</path>
<rect  transform="matrix(-0.7963165044784546, 0.60481196641922, -0.5988084077835083, -0.8009278774261475, 150.95465087890625, 344.8286437988281)" x="0" y="0" width="0.6612607537724265" height="1.9879540449256297" rx="20"    fill="#FFFFFF" opacity="0.4">
</rect>
<rect  transform="matrix(-0.7521638870239258, 0.6590153574943542, -0.6531037092208862, -0.7572497129440308, 150.73492431640625, 346.4194641113281)" x="0" y="0" width="0.8820968319357375" height="3.7531719038091187" rx="20"    fill="#FFFFFF" opacity="0.5">
</rect>
<path d="M152.445 354.803L150.778 355.779L154.908 355.779L157.372 354.803L152.445 354.803ZM157.372 349.798L152.445 349.798L152.445 354.803L157.372 354.803L157.372 349.798ZM152.445 349.798L150.778 351.123L150.778 355.779L152.445 354.803L152.445 349.798Z" stroke="rgba(235, 252, 255, 1)" stroke-width="1"    fill-rule="evenodd"  fill="#B3FFF6" opacity="0.8">
</path>
<path d="M151.218 356.222L148.691 357.691L154.954 357.691L158.691 356.222L151.218 356.222ZM158.691 348.691L151.218 348.691L151.218 356.222L158.691 356.222L158.691 348.691ZM151.218 348.691L148.691 350.684L148.691 357.691L151.218 356.222L151.218 348.691Z" stroke="rgba(240, 253, 255, 1)" stroke-width="1"    fill-rule="evenodd"  fill="#ABFFF5" opacity="0.5">
</path>
<rect  transform="matrix(-0.7963165044784546, 0.60481196641922, -0.5988084077835083, -0.8009278774261475, 154.95465087890625, 353.8286437988281)" x="0" y="0" width="0.6612607537724265" height="1.9879540449256297" rx="20"    fill="#FFFFFF" opacity="0.4">
</rect>
<rect  transform="matrix(-0.7521638870239258, 0.6590153574943542, -0.6531037092208862, -0.7572497129440308, 154.73492431640625, 355.4194641113281)" x="0" y="0" width="0.8820968319357375" height="3.7531719038091187" rx="20"    fill="#FFFFFF" opacity="0.5">
</rect>
<path d="M309.51 120.77L312.864 123.207L309.57 127.74L306.216 125.304L309.51 120.77Z"   fill="#8E331B" >
</path>
<path d="M309.521 123.8C315.568 128.193 319.808 128.803 319.808 128.803L320.983 108.494L320.971 108.485L302.019 115.879C302.019 115.879 303.908 119.722 309.955 124.115L309.521 123.8Z"   fill="#438A89" >
</path>
<path d="M313.432 118.279C319.479 122.672 323.718 123.281 323.718 123.281L324.894 102.972L324.882 102.964L305.929 110.357C305.929 110.357 307.819 114.201 313.866 118.594L313.432 118.279Z"   fill="#3D7886" >
</path>
<path d="M313.912 117.889C318.211 121.012 321.225 121.446 321.225 121.446L322.061 107.007L322.052 107L308.578 112.257C308.578 112.257 309.922 114.989 314.221 118.113L313.912 117.889L313.912 117.889Z"   fill="#438A89" >
</path>
<path d="M316.685 113.96C320.985 117.084 323.999 117.517 323.999 117.517L324.834 103.078L324.825 103.071L311.351 108.328C311.351 108.328 312.695 111.06 316.994 114.184L316.686 113.96L316.685 113.96Z"   fill="#3D7886" >
</path>
<path d="M317.202 113.443C320.412 115.775 322.623 116.153 322.623 116.153L322.911 105.834L322.905 105.829L313.18 109.292C313.18 109.292 314.222 111.278 317.432 113.61L317.202 113.443Z"   fill="#438A89" >
</path>
<path d="M319.669 110.047C322.879 112.379 325.09 112.757 325.09 112.757L325.378 102.438L325.372 102.434L315.647 105.896C315.647 105.896 316.69 107.882 319.9 110.214L319.669 110.047L319.669 110.047Z"   fill="#3D7886" >
</path>
<path d="M319.975 109.603C322.003 111.076 323.39 111.329 323.39 111.329L323.484 104.93L323.48 104.927L317.424 106.995C317.424 106.995 318.093 108.236 320.12 109.709L319.975 109.603L319.975 109.603Z"   fill="#438A89" >
</path>
<path d="M323.5 103.932L324.869 103.041L324.354 104.552L325.663 104.9L324.023 105.424L323.597 106.822L323.076 105.509L321.793 105.512L322.78 104.666L322.393 103.404L323.5 103.932Z"   fill="#FDC25B" >
</path>
<defs>
<filter id="filter_23" x="303.7007751464844" y="112.56680297851562" width="81.65786743164062" height="82.068359375" filterUnits="userSpaceOnUse" color-interpolation-filters="sRGB">
<feFlood flood-opacity="0" result="feFloodId_23"/>
<feBlend mode="normal" in="SourceGraphic" in2="feFloodId_23" result="shape"/>
<feGaussianBlur result="gaussian_blur_23" stdDeviation="20"/>
</filter>
<filter id="filter_31" x="292.69061279296875" y="322.6905822753906" width="51.00006103515625" height="51.000091552734375" filterUnits="userSpaceOnUse" color-interpolation-filters="sRGB">
<feFlood flood-opacity="0" result="feFloodId_31"/>
<feColorMatrix in="SourceAlpha" type="matrix" values="0 0 0 0 0 0 0 0 0 0 0 0 0 0 0 0 0 0 127 0" result="hardAlpha_31"/>
<feOffset dx="0" dy="0"/>
<feGaussianBlur stdDeviation="7.5"/>
<feComposite in2="hardAlpha_31" operator="out"/>
<feColorMatrix type="matrix" values="0 0 0 0 1 0 0 0 0 0.9019607843137255 0 0 0 0 0 0 0 0 0.8 0"/>
<feBlend mode="" in2="feFloodId_31" result="dropShadow_1_31"/>
<feBlend mode="normal" in="SourceGraphic" in2="dropShadow_1_31" result="shape_31"/>
</filter>
<filter id="filter_75" x="307.2593688964844" y="123.54910278320312" width="83.20260620117188" height="81.08810424804688" filterUnits="userSpaceOnUse" color-interpolation-filters="sRGB">
<feFlood flood-opacity="0" result="feFloodId_75"/>
<feBlend mode="normal" in="SourceGraphic" in2="feFloodId_75" result="shape"/>
<feGaussianBlur result="gaussian_blur_75" stdDeviation="20"/>
</filter>
<mask id="mask-undefined" style="mask-type:alpha" maskUnits="userSpaceOnUse">
<path d="M309.515 123.809C315.562 128.203 319.801 128.812 319.801 128.812L320.976 108.503L320.964 108.494L302.012 115.888C302.012 115.888 303.902 119.731 309.949 124.125L309.515 123.809Z"   fill="#000000" >
</path>
</mask>
<mask id="mask-undefined" style="mask-type:alpha" maskUnits="userSpaceOnUse">
<path d="M313.907 117.895C318.207 121.019 321.221 121.452 321.221 121.452L322.056 107.013L322.047 107.007L308.573 112.263C308.573 112.263 309.917 114.996 314.216 118.119L313.908 117.895L313.907 117.895Z"   fill="#000000" >
</path>
</mask>
<mask id="mask-undefined" style="mask-type:alpha" maskUnits="userSpaceOnUse">
<path d="M317.202 113.443C320.412 115.775 322.623 116.153 322.623 116.153L322.911 105.834L322.905 105.829L313.18 109.292C313.18 109.292 314.222 111.278 317.432 113.61L317.202 113.443Z"   fill="#000000" >
</path>
</mask>
</defs>
</svg>
