<?xml version="1.0" standalone="no"?>
<!DOCTYPE svg PUBLIC "-//W3C//DTD SVG 20010904//EN"
 "http://www.w3.org/TR/2001/REC-SVG-20010904/DTD/svg10.dtd">
<svg version="1.0" xmlns="http://www.w3.org/2000/svg"
 width="1280.000000pt" height="1280.000000pt" viewBox="0 0 1280.000000 1280.000000"
 preserveAspectRatio="xMidYMid meet">
<metadata>
Created by potrace 1.15, written by Peter Selinger 2001-2017
</metadata>
<g transform="translate(0.000000,1280.000000) scale(0.100000,-0.100000)"
fill="#000000" stroke="none">
<path d="M6319 9209 c-63 -38 -69 -57 -69 -238 0 -89 -3 -161 -6 -161 -3 0
-31 21 -62 46 -73 60 -94 67 -135 50 -54 -22 -87 -70 -87 -124 l0 -47 145
-145 146 -146 -3 -96 -3 -96 -138 104 c-120 91 -142 104 -177 104 -21 0 -50
-5 -64 -11 -46 -22 -71 -108 -43 -155 7 -11 105 -105 220 -208 l207 -188 0
-74 c0 -58 -3 -73 -12 -68 -7 4 -106 70 -220 146 -142 94 -216 138 -235 138
-38 0 -89 -33 -108 -69 -19 -38 -57 -193 -89 -370 -14 -73 -27 -135 -28 -137
-2 -1 -28 18 -57 44 l-53 47 22 287 c23 309 21 342 -23 373 -12 9 -43 15 -73
15 -106 0 -133 -60 -159 -353 l-7 -67 -71 63 -71 64 3 220 c3 219 2 220 -21
248 -18 20 -36 28 -71 32 -93 11 -132 -26 -157 -148 l-15 -77 -122 114 -123
114 -64 0 c-54 0 -69 -4 -94 -25 -34 -28 -62 -82 -62 -118 0 -33 39 -88 138
-196 45 -49 82 -92 82 -95 0 -3 -19 -6 -42 -6 -59 -1 -123 -32 -142 -69 -34
-64 -11 -162 42 -182 18 -7 84 -7 210 1 l183 11 67 -59 c119 -105 118 -98 5
-111 -218 -27 -273 -55 -273 -137 0 -56 42 -131 78 -141 13 -3 137 8 275 24
l252 30 50 -48 c27 -27 46 -51 43 -55 -4 -3 -57 -14 -120 -25 -257 -44 -361
-81 -385 -137 -21 -51 -10 -89 55 -183 32 -46 102 -148 155 -226 l97 -143 -77
1 -78 0 -203 234 c-220 255 -228 261 -307 235 -45 -15 -65 -52 -65 -122 0 -53
1 -55 116 -198 l115 -145 -95 -3 -95 -3 -163 166 c-145 147 -167 165 -196 165
-67 0 -130 -54 -139 -117 -5 -37 -1 -44 67 -126 l71 -87 -192 0 c-180 0 -194
-1 -231 -22 -50 -28 -68 -63 -68 -128 0 -58 18 -99 56 -129 25 -19 40 -21 190
-21 90 0 164 -3 164 -6 0 -3 -14 -25 -31 -49 -29 -40 -31 -49 -27 -106 6 -78
35 -109 101 -109 41 0 47 4 177 135 l135 135 107 0 c60 0 108 -3 108 -6 0 -4
-22 -36 -49 -73 -85 -117 -121 -175 -121 -199 0 -34 41 -90 78 -108 74 -35
123 2 346 269 l98 117 65 0 c53 0 64 -3 59 -15 -3 -8 -53 -90 -112 -182 -59
-92 -111 -180 -116 -194 -15 -43 12 -94 63 -120 56 -28 229 -71 401 -99 l137
-23 -47 -54 -47 -55 -100 6 c-55 4 -185 14 -290 22 -208 17 -246 14 -281 -21
-35 -35 -35 -125 0 -160 35 -35 144 -63 359 -90 l47 -6 -60 -67 -60 -67 -233
4 -234 3 -26 -32 c-21 -24 -27 -42 -27 -78 0 -95 58 -142 174 -142 36 0 66 -3
66 -7 0 -5 -51 -62 -112 -128 -147 -159 -188 -211 -188 -243 0 -39 75 -160
103 -164 68 -12 160 44 294 178 l92 91 10 -49 c21 -95 58 -138 120 -138 41 0
119 47 127 76 3 11 2 96 -3 187 l-8 167 73 80 c41 44 78 80 83 80 5 0 9 -19 9
-42 0 -108 32 -232 70 -270 38 -37 110 -40 161 -5 l34 23 -2 135 c-1 74 -9
192 -17 264 l-14 130 51 59 51 59 23 -134 c45 -260 80 -346 148 -369 20 -7 48
-9 62 -5 14 3 103 59 197 123 94 65 188 128 209 141 l37 23 0 -85 0 -84 -39
-26 c-116 -77 -388 -326 -397 -364 -16 -63 54 -163 114 -163 20 0 66 29 156
98 70 53 136 103 147 111 18 13 19 10 19 -80 l0 -94 -145 -145 -145 -145 0
-62 c0 -75 24 -110 82 -120 55 -8 81 2 145 58 l58 51 5 -219 c5 -231 8 -244
56 -282 20 -16 41 -21 86 -21 70 0 111 19 138 63 18 29 20 51 20 235 l0 203
45 -31 c91 -63 180 -75 220 -30 11 13 20 42 23 76 l5 55 -147 147 -146 148 0
107 0 108 138 -106 c145 -110 166 -119 220 -91 41 22 70 57 77 97 9 47 -2 59
-249 279 l-185 165 0 63 c-1 34 2 62 5 62 3 0 84 -54 181 -121 96 -66 191
-127 210 -136 65 -27 119 -2 156 72 18 36 61 220 78 330 17 115 18 116 76 62
l49 -46 -30 -254 c-16 -140 -26 -265 -23 -278 9 -36 85 -79 138 -79 76 1 100
38 125 187 8 54 18 116 22 137 l7 39 78 -74 79 -74 -11 -173 c-15 -217 -9
-251 46 -280 31 -17 99 -15 134 4 37 19 68 83 69 142 0 23 3 42 6 42 3 0 56
-47 117 -105 157 -147 199 -177 241 -177 63 0 156 72 156 120 0 62 -77 175
-231 337 -38 40 -69 75 -69 79 0 3 23 6 52 6 71 0 131 30 153 77 25 51 15 120
-20 150 -25 22 -31 23 -249 23 l-223 0 -61 68 -61 69 127 11 c223 20 292 55
292 150 0 71 -32 116 -85 120 -38 3 -429 -22 -527 -34 -47 -6 -49 -5 -105 49
-55 53 -57 56 -33 61 14 2 106 21 205 40 212 41 273 59 309 87 24 19 26 27 26
90 l0 70 -109 159 c-60 87 -112 163 -115 169 -5 8 17 11 71 11 l78 0 46 -62
c25 -35 96 -123 159 -195 124 -146 143 -157 221 -134 48 15 69 51 69 120 0 52
1 51 -117 201 -24 30 -43 58 -43 63 0 4 51 7 114 7 l113 0 26 -39 c14 -21 68
-82 119 -135 87 -90 96 -96 132 -96 72 0 136 65 136 138 0 19 -13 47 -35 76
-19 26 -35 48 -35 51 0 3 78 5 173 5 169 0 173 1 210 26 44 29 57 57 57 120 0
51 -16 88 -55 124 -26 25 -29 25 -247 30 l-221 5 61 67 c68 75 77 97 68 163
-10 61 -50 95 -115 95 l-47 0 -125 -127 c-69 -71 -138 -145 -153 -165 l-28
-38 -99 0 c-55 0 -99 2 -99 5 0 2 32 44 71 92 93 116 147 208 155 264 5 39 3
49 -20 76 -34 40 -98 53 -144 29 -16 -8 -117 -117 -222 -241 l-193 -225 -74 0
c-41 0 -73 3 -71 8 2 4 51 78 111 164 204 298 221 335 178 390 -37 47 -171 90
-425 139 l-58 11 51 52 51 52 223 -27 c305 -38 289 -39 332 19 28 37 35 56 35
94 0 39 -4 50 -30 71 -29 25 -113 49 -215 62 -85 11 -96 14 -88 29 4 8 37 44
72 81 l64 66 164 -11 c184 -12 209 -7 259 53 21 25 25 38 21 70 -8 61 -52 98
-132 112 -22 4 -43 10 -48 12 -4 3 30 46 76 96 105 115 147 173 147 204 0 33
-34 97 -66 122 -21 16 -41 21 -91 21 l-64 0 -129 -121 c-71 -66 -132 -124
-135 -130 -13 -20 -25 -7 -25 27 0 64 -31 176 -56 201 -33 33 -94 31 -150 -4
-59 -38 -64 -54 -54 -164 5 -52 10 -147 10 -212 l0 -118 -62 -68 c-35 -38 -66
-69 -69 -70 -4 -1 -9 43 -13 97 -14 191 -43 307 -85 339 -9 7 -37 13 -63 13
-38 0 -55 -6 -90 -33 -41 -32 -43 -36 -42 -83 1 -44 37 -437 49 -526 5 -33 0
-42 -46 -93 -29 -31 -55 -52 -59 -48 -4 4 -17 64 -30 133 -30 165 -76 353 -96
393 -55 107 -102 95 -403 -107 l-141 -95 0 63 0 64 168 145 c92 80 190 168
217 196 46 47 50 56 49 97 -1 60 -34 94 -97 101 -25 3 -56 3 -69 0 -13 -4 -77
-47 -143 -96 l-120 -90 -3 107 -3 106 146 146 c142 142 145 146 145 188 0 79
-42 122 -120 122 -28 0 -103 -45 -135 -80 -10 -11 -22 -20 -27 -20 -4 0 -8 68
-8 150 0 162 -5 184 -54 229 -38 35 -127 40 -177 10z m-346 -1581 c51 -34 134
-92 185 -130 l92 -68 0 -63 0 -64 -170 -96 c-94 -54 -174 -96 -178 -96 -4 1
-32 29 -63 63 l-56 61 13 90 c24 162 66 365 76 365 5 0 50 -28 101 -62z m965
-95 c17 -87 36 -195 43 -241 l13 -83 -42 -42 -42 -42 -127 64 c-70 34 -151 78
-180 97 l-53 34 0 64 c0 63 1 64 43 98 47 39 298 208 308 208 4 0 20 -71 37
-157z m-271 -624 c142 -78 275 -151 295 -163 l38 -21 0 -333 0 -332 -69 -45
c-119 -77 -489 -285 -507 -285 -37 0 -390 195 -521 288 l-63 44 0 328 0 328
168 100 c142 85 392 230 399 232 1 0 118 -64 260 -141z m-1074 82 l42 -39 -48
-44 -47 -44 0 -157 0 -157 -68 0 c-66 0 -68 1 -87 33 -10 17 -70 110 -132 206
-63 95 -112 175 -110 178 7 7 328 61 370 62 31 1 45 -6 80 -38z m1855 9 c102
-17 187 -32 190 -34 4 -5 -205 -312 -255 -373 -23 -29 -42 -43 -58 -43 -23 0
-23 2 -28 133 -5 158 -16 196 -68 248 l-40 40 23 29 c13 16 29 29 36 29 8 1
98 -13 200 -29z m-1908 -913 c0 -142 3 -168 19 -201 l20 -38 -47 6 c-68 10
-386 68 -391 72 -2 1 45 75 104 163 l108 161 93 0 94 0 0 -163z m1921 96 c31
-38 83 -109 117 -160 l62 -92 -38 -10 c-30 -8 -221 -46 -334 -66 -16 -2 -28
-1 -28 2 0 4 12 20 28 36 27 28 27 29 30 193 l3 164 53 0 52 0 55 -67z m-1473
-572 c48 -26 126 -69 175 -95 48 -26 87 -51 87 -55 0 -9 -380 -265 -384 -259
-1 1 -18 86 -38 188 l-37 185 47 42 c26 23 50 42 55 43 4 0 47 -22 95 -49z
m978 -55 c-7 -71 -53 -346 -58 -352 -2 -2 -62 35 -134 82 -71 47 -150 97 -176
112 -27 15 -48 32 -48 38 0 7 53 41 118 78 64 36 146 83 182 105 l65 39 29
-21 c27 -19 28 -22 22 -81z"/>
<path d="M6355 7004 c-119 -63 -316 -177 -390 -226 -118 -79 -115 -68 -115
-393 0 -304 1 -307 75 -365 85 -68 449 -270 485 -270 39 0 411 199 507 271 38
28 55 50 63 77 7 24 10 131 8 311 l-3 273 -46 42 c-25 22 -93 69 -150 103
-111 65 -341 189 -368 198 -9 3 -39 -7 -66 -21z"/>
</g>
</svg>
