<?xml version="1.0" standalone="no"?><!DOCTYPE svg PUBLIC "-//W3C//DTD SVG 1.1//EN" "http://www.w3.org/Graphics/SVG/1.1/DTD/svg11.dtd"><svg t="1711272178099" class="icon" viewBox="0 0 1024 1024" version="1.1" xmlns="http://www.w3.org/2000/svg" p-id="4430" xmlns:xlink="http://www.w3.org/1999/xlink" width="128" height="128"><path d="M512.001023 857.386308l-3.543709-3.913123c-6.236028-1.168616-10.215666-5.347798-11.968589-9.298783-0.473791-1.065262-0.939395-2.433422-1.191128-4.03899-33.998325-27.125801-188.201359-119.909997-284.491403-176.12123C116.743888 609.785094 65.058738 504.854253 79.201853 396.72865c15.290241-116.765377 107.24556-210.577996 223.63436-228.116441 65.332984-9.846252 135.858224 16.939811 209.16481 79.631642 73.321936-62.698994 143.840012-89.514733 209.16481-79.631642 116.439966 17.553795 208.40347 111.395066 223.641523 228.212632 14.121626 108.221794-37.674041 213.174124-131.937938 267.381723-96.127338 56.116065-250.190179 148.818397-284.165991 175.921685-0.251733 1.612731-0.717338 2.980891-1.191128 4.03899-1.74576 3.949962-5.725398 8.129144-11.961426 9.305947L512.001023 857.386308z" fill="#fd5843" p-id="4431"></path></svg>